<svg xmlns="http://www.w3.org/2000/svg" xmlns:xlink="http://www.w3.org/1999/xlink" xmlns:lucid="lucid" width="2095.64" height="1233.95"><g transform="translate(0 0)" lucid:page-tab-id="tkFr83ohwBG."><path d="M0 0h2095.64v1233.95H0z" fill="#fff"/><path d="M1630.8 333c0-4.42 3.6-8 8-8h196c4.43 0 8 3.58 8 8v164c0 4.42-3.57 8-8 8h-196c-4.4 0-8-3.58-8-8z" stroke="#0c7cba" fill="#c1e4f7"/><path d="M1630.8 367.93h212" stroke="#0c7cba" fill="none"/><use xlink:href="#a" transform="matrix(1,0,0,1,1638.8115655658703,333) translate(58.037654320987656 17.988888888888887)"/><use xlink:href="#b" transform="matrix(1,0,0,1,1642.8115655658703,375.93333333333334) translate(68.95958116319446 28.170355902777786)"/><use xlink:href="#c" transform="matrix(1,0,0,1,1642.8115655658703,375.93333333333334) translate(57.01953125000001 54.14366319444445)"/><use xlink:href="#d" transform="matrix(1,0,0,1,1642.8115655658703,375.93333333333334) translate(69.06917317708334 80.11697048611111)"/><use xlink:href="#e" transform="matrix(1,0,0,1,1642.8115655658703,375.93333333333334) translate(50.887858072916686 106.09027777777777)"/><path d="M1763.82 714c0-4.42 3.58-8 8-8h232c4.42 0 8 3.58 8 8v138c0 4.42-3.58 8-8 8h-232c-4.42 0-8-3.58-8-8z" stroke="#0c7cba" fill="#c1e4f7"/><path d="M1763.82 748.93h248" stroke="#0c7cba" fill="none"/><use xlink:href="#f" transform="matrix(1,0,0,1,1771.8232189080563,714) translate(84.29722222222223 17.988888888888887)"/><use xlink:href="#g" transform="matrix(1,0,0,1,1775.8232189080563,756.9333333333333) translate(44.595431857638914 54.13031684027778)"/><use xlink:href="#h" transform="matrix(1,0,0,1,1775.8232189080563,756.9333333333333) translate(72.43180338541669 54.13031684027778)"/><path d="M1283.82 948c0-4.42 3.58-8 8-8h296c4.42 0 8 3.58 8 8v86c0 4.42-3.58 8-8 8h-296c-4.42 0-8-3.58-8-8z" stroke="#0c7cba" fill="#c1e4f7"/><path d="M1283.82 982.93h312" stroke="#0c7cba" fill="none"/><use xlink:href="#i" transform="matrix(1,0,0,1,1291.8232189080563,948) translate(124.83981481481482 17.988888888888887)"/><use xlink:href="#j" transform="matrix(1,0,0,1,1295.8232189080563,990.9333333333333) translate(24.321397569444485 28.13031684027778)"/><use xlink:href="#k" transform="matrix(1,0,0,1,1295.8232189080563,990.9333333333333) translate(75.45703125000003 28.13031684027778)"/><use xlink:href="#l" transform="matrix(1,0,0,1,1295.8232189080563,990.9333333333333) translate(87.93956163194446 28.13031684027778)"/><use xlink:href="#m" transform="matrix(1,0,0,1,1295.8232189080563,990.9333333333333) translate(167.17458767361111 28.13031684027778)"/><use xlink:href="#n" transform="matrix(1,0,0,1,1295.8232189080563,990.9333333333333) translate(257.138671875 28.13031684027778)"/><path d="M1103.82 528c0-4.42 3.58-8 8-8h196c4.42 0 8 3.58 8 8v170c0 4.42-3.58 8-8 8h-196c-4.42 0-8-3.58-8-8z" stroke="#333" fill="#fff"/><path d="M1103.82 562.93h212" stroke="#333" fill="none"/><use xlink:href="#o" transform="matrix(1,0,0,1,1111.8232189080563,528) translate(43.76049382716051 17.988888888888887)"/><use xlink:href="#p" transform="matrix(1,0,0,1,1115.8232189080563,570.9333333333333) translate(85.623046875 44.157009548611114)"/><use xlink:href="#q" transform="matrix(1,0,0,1,1115.8232189080563,570.9333333333333) translate(51.046766493055564 70.13031684027777)"/><use xlink:href="#r" transform="matrix(1,0,0,1,1115.8232189080563,570.9333333333333) translate(70.98155381944446 96.10362413194443)"/><path d="M163.82 318c0-4.42 3.58-8 8-8h243.5c4.42 0 8 3.58 8 8v168c0 4.42-3.58 8-8 8h-243.5c-4.42 0-8-3.58-8-8z" stroke="#c92d39" fill="#ffbbb1"/><path d="M163.82 352.93h259.5" stroke="#c92d39" fill="none"/><use xlink:href="#s" transform="matrix(1,0,0,1,171.82321890805633,318) translate(70.3777777777778 17.988888888888887)"/><use xlink:href="#t" transform="matrix(1,0,0,1,175.82321890805633,360.93333333333334) translate(92.45958116319446 43.157009548611114)"/><use xlink:href="#u" transform="matrix(1,0,0,1,175.82321890805633,360.93333333333334) translate(77.73589409722223 69.13031684027777)"/><use xlink:href="#v" transform="matrix(1,0,0,1,175.82321890805633,360.93333333333334) translate(92.56917317708334 95.10362413194443)"/><path d="M83.82 1008c0-4.42 3.58-8 8-8h244.55c4.42 0 8 3.58 8 8v168c0 4.42-3.58 8-8 8H91.82c-4.42 0-8-3.58-8-8z" stroke="#fcc438" fill="#ffeca9"/><path d="M83.82 1042.93h260.55" stroke="#fcc438" fill="none"/><use xlink:href="#w" transform="matrix(1,0,0,1,91.82321890805633,1008) translate(50.303703703703704 17.988888888888887)"/><use xlink:href="#x" transform="matrix(1,0,0,1,95.82321890805633,1050.9333333333334) translate(95.025390625 30.170355902777786)"/><use xlink:href="#y" transform="matrix(1,0,0,1,95.82321890805633,1050.9333333333334) translate(50.41048177083334 56.14366319444445)"/><use xlink:href="#z" transform="matrix(1,0,0,1,95.82321890805633,1050.9333333333334) translate(58.56960720486113 82.11697048611111)"/><use xlink:href="#A" transform="matrix(1,0,0,1,95.82321890805633,1050.9333333333334) translate(49.50086805555556 108.09027777777777)"/><path d="M583.33 48c0-4.42 3.58-8 8-8h913c4.4 0 8 3.58 8 8v146.1c0 4.4-3.6 8-8 8h-913c-4.42 0-8-3.6-8-8z" stroke="#000" stroke-opacity="0" stroke-width="2" fill="#fff" fill-opacity="0"/><use xlink:href="#B" transform="matrix(1,0,0,1,587.3266934042622,44) translate(53.02555555555631 71.56541666666658)"/><use xlink:href="#C" transform="matrix(1,0,0,1,587.3266934042622,44) translate(613.5624444444443 71.56541666666658)"/><use xlink:href="#D" transform="matrix(1,0,0,1,587.3266934042622,44) translate(463.81 104.0231944444443)"/><use xlink:href="#E" transform="matrix(1,0,0,1,587.3266934042622,44) translate(266.1311111111118 121.48097222222201)"/><use xlink:href="#F" transform="matrix(1,0,0,1,587.3266934042622,44) translate(448.83822222222227 121.48097222222201)"/><use xlink:href="#G" transform="matrix(1,0,0,1,587.3266934042622,44) translate(496.6213333333332 121.48097222222201)"/><path d="M583.33 209.84c0-4.42 3.58-8 8-8h884c4.4 0 8 3.58 8 8v29.03c0 4.42-3.6 8-8 8h-884c-4.42 0-8-3.58-8-8z" stroke="#000" stroke-opacity="0" stroke-width="2" fill="#fff" fill-opacity="0"/><use xlink:href="#H" transform="matrix(1,0,0,1,587.3266934042622,205.83599999999996) translate(201.20627777777793 26.778148148148137)"/><use xlink:href="#I" transform="matrix(1,0,0,1,587.3266934042622,205.83599999999996) translate(328.95242592592604 26.778148148148137)"/><use xlink:href="#J" transform="matrix(1,0,0,1,587.3266934042622,205.83599999999996) translate(401.79820370370373 26.778148148148137)"/><use xlink:href="#K" transform="matrix(1,0,0,1,587.3266934042622,205.83599999999996) translate(530.5843148148148 26.778148148148137)"/><use xlink:href="#L" transform="matrix(1,0,0,1,587.3266934042622,205.83599999999996) translate(566.8379074074073 26.778148148148137)"/><use xlink:href="#M" transform="matrix(1,0,0,1,587.3266934042622,205.83599999999996) translate(579.4383888888888 26.778148148148137)"/><use xlink:href="#N" transform="matrix(1,0,0,1,587.3266934042622,205.83599999999996) translate(628.5584999999999 26.778148148148137)"/><use xlink:href="#O" transform="matrix(1,0,0,1,587.3266934042622,205.83599999999996) translate(651.3651296296296 26.778148148148137)"/><path d="M998.62 814.53l-.46 3.5-1.4 3.37-2.23 2.9-2.9 2.25-3.37 1.4-3.5.45H891.9v-4h92.57l2.7-.35 2.4-1 2.08-1.6 1.6-2.07 1-2.4.34-2.7v-81.6h4zM1101.32 615h-92.57l-2.72.36-2.4 1-2.07 1.58-1.6 2.08-.98 2.4-.36 2.7v81.6h-4v-81.85l.46-3.5 1.4-3.37 2.23-2.9 2.92-2.25 3.37-1.4 3.5-.45h92.82z" fill="#5abaa7"/><path d="M891.97 828.4h-2.05v-4h2.05zM1103.32 615h-2.05v-4h2.05z" fill="#5abaa7"/><use xlink:href="#P" transform="matrix(1,0,0,1,1086.8789469504422,617.0000000000001) translate(0 14.4)"/><use xlink:href="#Q" transform="matrix(1,0,0,1,905.89991221674,800.8026950000003) translate(0 14.4)"/><use xlink:href="#R" transform="matrix(1,0,0,1,956.2536530920842,706.7146938541667) translate(0.005000000000002558 19.616970486111107)"/><path d="M1882.48 603.5l3.5.46 3.37 1.4 2.92 2.23 2.23 2.9 1.4 3.36.45 3.5v86.14h-4v-85.87l-.35-2.72-1-2.38-1.6-2.08-2.06-1.6-2.4-.98-2.72-.36h-5.12v-4zm-143.3-7.4l.98 2.38 1.6 2.08 2.07 1.6 2.4.98 2.7.36h5.13v4h-5.38l-3.5-.46-3.37-1.4-2.9-2.23-2.23-2.9-1.4-3.36-.46-3.5V507.5h4v85.87z" fill="#83bbe5"/><path d="M1738.8 507.55h-4v-2.05h4zM1896.35 705.5h-4v-2.05h4z" fill="#83bbe5"/><use xlink:href="#P" transform="matrix(1,0,0,1,1718.8127416533139,515.3237785021116) translate(0 14.4)"/><use xlink:href="#S" transform="matrix(1,0,0,1,1902.354384197335,683.7) translate(0 14.4)"/><use xlink:href="#T" transform="matrix(1,0,0,1,1754.0640859287964,592.5133463541666) translate(0.005000000000002558 19.616970486111107)"/><path d="M426.1 1080.13l-.46 3.5-1.4 3.37-2.23 2.9-2.9 2.25-3.37 1.4-3.5.45h-65.36v-4h65.1l2.72-.36 2.38-1 2.08-1.58 1.6-2.08.98-2.4.36-2.7V967.2h4zM501.32 858h-65.1l-2.7.36-2.4 1-2.08 1.58-1.6 2.08-.98 2.4-.36 2.7v73.12h-4v-73.37l.46-3.5 1.4-3.37 2.23-2.9 2.9-2.25 3.36-1.4 3.5-.45h65.36z" fill="#5abaa7"/><path d="M503.32 858h-2.05v-4h2.05zM346.92 1094h-2.05v-4h2.05z" fill="#5abaa7"/><use xlink:href="#U" transform="matrix(1,0,0,1,471.99687332193497,830.4000000000001) translate(0 14.4)"/><use xlink:href="#U" transform="matrix(1,0,0,1,349.76489298125864,1096) translate(0 14.4)"/><use xlink:href="#V" transform="matrix(1,0,0,1,379.32459263375085,941.2359684190025) translate(0.005000000000002558 19.616970486111107)"/><path d="M684.75 635l3.5.46 3.37 1.4 2.9 2.23 2.25 2.9 1.4 3.36.45 3.5V777.5h-4V649.13l-.35-2.72-1-2.38-1.6-2.08-2.07-1.6-2.4-.98-2.7-.36H478v-4zm-398.33-7.4l1 2.38 1.6 2.08 2.06 1.6 2.4.98 2.72.36h129.57v4H295.94l-3.5-.46-3.37-1.4-2.92-2.23-2.23-2.9-1.4-3.36-.45-3.5V496.5h4v128.37z" fill="#5abaa7"/><path d="M698.62 779.5h-4v-2.05h4zM286.07 496.55h-4v-2.05h4z" fill="#5abaa7"/><use xlink:href="#P" transform="matrix(1,0,0,1,292.0667205057942,505.212528885154) translate(0 14.4)"/><use xlink:href="#S" transform="matrix(1,0,0,1,704.6218716210608,746.1537639663867) translate(0 14.4)"/><use xlink:href="#W" transform="matrix(1,0,0,1,425.76875726187393,624.0133463541666) translate(0.004999999999999005 19.616970486111107)"/><path d="M698.62 978.87l.36 2.72 1 2.38 1.58 2.08 2.08 1.6 2.4.98 2.7.36h205.7v4H708.5l-3.5-.46-3.38-1.4-2.9-2.23-2.24-2.9-1.4-3.36-.46-3.5V934.5h4zm582.7 10.13v4H1037.5v-4z" fill="#5abaa7"/><path d="M698.62 934.55h-4v-2.05h4zM1283.32 993h-2.05v-4h2.05z" fill="#5abaa7"/><use xlink:href="#P" transform="matrix(1,0,0,1,704.6218716210608,943.3677855353221) translate(0 14.4)"/><use xlink:href="#S" transform="matrix(1,0,0,1,1238.6519538519387,965.4) translate(0 14.4)"/><use xlink:href="#T" transform="matrix(1,0,0,1,914.4485144403177,978.0133463541666) translate(0.005000000000002558 19.616970486111107)"/><path d="M503.82 788c0-4.42 3.58-8 8-8h369.6c4.42 0 8 3.58 8 8v136c0 4.42-3.58 8-8 8h-369.6c-4.42 0-8-3.58-8-8z" stroke="#19967d" fill="#c7e8ac"/><path d="M503.82 822.93h385.6" stroke="#19967d" fill="none"/><use xlink:href="#X" transform="matrix(1,0,0,1,511.82321890805633,788) translate(120.90864197530865 17.988888888888887)"/><use xlink:href="#g" transform="matrix(1,0,0,1,515.8232189080563,830.9333333333333) translate(113.59543185763891 27.157009548611114)"/><use xlink:href="#Y" transform="matrix(1,0,0,1,515.8232189080563,830.9333333333333) translate(141.43180338541669 27.157009548611114)"/><use xlink:href="#Z" transform="matrix(1,0,0,1,515.8232189080563,830.9333333333333) translate(118.05034722222223 53.13031684027778)"/><use xlink:href="#aa" transform="matrix(1,0,0,1,515.8232189080563,830.9333333333333) translate(116.83387586805557 79.10362413194443)"/><path d="M1833.4 993h-235.07v-4h235.08zm56.42-15h-4V862.5h4z" fill="#83bbe5"/><path d="M1889.82 862.55h-4v-2.05h4zM1598.38 993h-2.05v-4h2.05z" fill="#83bbe5"/><g><use xlink:href="#ab" transform="matrix(1,0,0,1,1833.4051797279867,978.0133463541666) translate(0.005000000000002558 19.616970486111107)"/></g><g><use xlink:href="#P" transform="matrix(1,0,0,1,1869.8220428206128,877.371078153958) translate(0 14.4)"/></g><g><use xlink:href="#S" transform="matrix(1,0,0,1,1606.822366705351,995) translate(0 14.4)"/></g><path d="M655.83 288c0-4.42 3.58-8 8-8h212.03c4.4 0 8 3.58 8 8v251c0 4.42-3.6 8-8 8H663.83c-4.42 0-8-3.58-8-8z" stroke="#333" fill="#fff"/><path d="M655.83 322.93h228.03" stroke="#333" fill="none"/><g><use xlink:href="#ac" transform="matrix(1,0,0,1,663.8255710829435,288) translate(74.76604938271606 17.988888888888887)"/></g><g><use xlink:href="#p" transform="matrix(1,0,0,1,667.8255710829435,330.93333333333334) translate(93.623046875 19.723741319444464)"/><use xlink:href="#ad" transform="matrix(1,0,0,1,667.8255710829435,330.93333333333334) translate(83.50770399305556 45.69704861111113)"/><use xlink:href="#ae" transform="matrix(1,0,0,1,667.8255710829435,330.93333333333334) translate(50.071180555555564 71.67035590277779)"/><use xlink:href="#af" transform="matrix(1,0,0,1,667.8255710829435,330.93333333333334) translate(71.6882052951389 97.64366319444446)"/><use xlink:href="#ag" transform="matrix(1,0,0,1,667.8255710829435,330.93333333333334) translate(60.80571831597223 123.61697048611111)"/><use xlink:href="#ah" transform="matrix(1,0,0,1,667.8255710829435,330.93333333333334) translate(84.24745008680556 149.5902777777778)"/><use xlink:href="#ai" transform="matrix(1,0,0,1,667.8255710829435,330.93333333333334) translate(74.33485243055556 175.56358506944443)"/><use xlink:href="#aj" transform="matrix(1,0,0,1,667.8255710829435,330.93333333333334) translate(62.38384331597223 201.53689236111111)"/></g><path d="M1201.46 411.96l3.36 1.4 2.92 2.23 2.23 2.9 1.4 3.36.45 3.5v92.14h-4v-91.87l-.35-2.72-1-2.38-1.6-2.08-2.06-1.6-2.38-.98-2.73-.36h-96.93v-4h97.18zm-315.1 3.54v-4h133.67v4z" fill="#b2b2b2"/><path d="M1211.82 519.5h-4v-2.05h4zM886.4 415.5h-2.04v-4h2.05z" fill="#b2b2b2"/><g><use xlink:href="#R" transform="matrix(1,0,0,1,1020.0322594099498,400.5133463541667) translate(0.005000000000002558 19.616970486111107)"/></g><g><use xlink:href="#Q" transform="matrix(1,0,0,1,1174.8243949955,481.58816643411086) translate(0 14.4)"/></g><g><use xlink:href="#P" transform="matrix(1,0,0,1,906.1667579154407,417.5) translate(0 14.4)"/></g><path d="M1211.82 770.87l.36 2.72 1 2.38 1.6 2.08 2.06 1.6 2.4.98 2.7.36h183.3v4H1221.7l-3.5-.46-3.38-1.4-2.9-2.23-2.24-2.9-1.4-3.36-.46-3.5V708.5h4zm549.5 10.13v4H1491.4v-4z" fill="#b2b2b2"/><path d="M1211.82 708.55h-4v-2.05h4zM1763.32 785h-2.05v-4h2.05z" fill="#b2b2b2"/><g><use xlink:href="#ak" transform="matrix(1,0,0,1,1405.2486658927503,770.0133463541666) translate(0.005000000000002558 19.616970486111107)"/></g><g><use xlink:href="#Q" transform="matrix(1,0,0,1,1174.8243949955,721.8455500333256) translate(0 14.4)"/></g><g><use xlink:href="#P" transform="matrix(1,0,0,1,1742.7777653651433,757.4000000000001) translate(0 14.4)"/></g><path d="M1475.32 601.13l-.46 3.5-1.4 3.37-2.23 2.9-2.9 2.25-3.38 1.4-3.5.45h-143.12v-4h142.86l2.7-.36 2.4-1 2.08-1.58 1.6-2.08.98-2.4.36-2.7v-73.9h4zm153-184.13h-142.87l-2.72.36-2.4 1-2.07 1.58-1.6 2.08-.98 2.4-.36 2.7v73.9h-4v-74.15l.46-3.5 1.4-3.37 2.23-2.9 2.92-2.25 3.36-1.4 3.5-.45h143.13z" fill="#83bbe5"/><path d="M1630.3 417h-2.04v-4h2.05zM1318.38 615h-2.05v-4h2.05z" fill="#83bbe5"/><g><use xlink:href="#al" transform="matrix(1,0,0,1,1428.3639241397411,501.0133463541667) translate(0.005000000000002558 19.616970486111107)"/></g><g><use xlink:href="#P" transform="matrix(1,0,0,1,1606.978787709664,389.4) translate(0 14.4)"/></g><g><use xlink:href="#Q" transform="matrix(1,0,0,1,1330.08033288838,617.0000000000001) translate(0 14.4)"/></g><defs><path d="M67-125c0 53 21 87 73 88 37 1 54-22 65-47l45 17C233-25 199 4 140 4 58 4 20-42 15-125 8-235 124-281 211-232c18 10 29 29 36 50l-46 12c-8-25-30-41-62-41-52 0-71 34-72 86" id="am"/><path d="M25-224v-37h50v37H25zM25 0v-190h50V0H25" id="an"/><path d="M135-194c87-1 58 113 63 194h-50c-7-57 23-157-34-157-59 0-34 97-39 157H25l-1-190h47c2 12-1 28 3 38 12-26 28-41 61-42" id="ao"/><path d="M185-48c-13 30-37 53-82 52C43 2 14-33 14-96s30-98 90-98c62 0 83 45 84 108H66c0 31 8 55 39 56 18 0 30-7 34-22zm-45-69c5-46-57-63-70-21-2 6-4 13-4 21h74" id="ap"/><path d="M220-157c-53 9-28 100-34 157h-49v-107c1-27-5-49-29-50C55-147 81-57 75 0H25l-1-190h47c2 12-1 28 3 38 10-53 101-56 108 0 13-22 24-43 59-42 82 1 51 116 57 194h-49v-107c-1-25-5-48-29-50" id="aq"/><path d="M133-34C117-15 103 5 69 4 32 3 11-16 11-54c-1-60 55-63 116-61 1-26-3-47-28-47-18 1-26 9-28 27l-52-2c7-38 36-58 82-57s74 22 75 68l1 82c-1 14 12 18 25 15v27c-30 8-71 5-69-32zm-48 3c29 0 43-24 42-57-32 0-66-3-65 30 0 17 8 27 23 27" id="ar"/><g id="a"><use transform="matrix(0.06234567901234567,0,0,0.06234567901234567,0,0)" xlink:href="#am"/><use transform="matrix(0.06234567901234567,0,0,0.06234567901234567,16.147530864197527,0)" xlink:href="#an"/><use transform="matrix(0.06234567901234567,0,0,0.06234567901234567,22.382098765432094,0)" xlink:href="#ao"/><use transform="matrix(0.06234567901234567,0,0,0.06234567901234567,36.035802469135795,0)" xlink:href="#ap"/><use transform="matrix(0.06234567901234567,0,0,0.06234567901234567,48.50493827160493,0)" xlink:href="#aq"/><use transform="matrix(0.06234567901234567,0,0,0.06234567901234567,68.45555555555555,0)" xlink:href="#ar"/></g><path d="M650-940c160-62 310 29 310 199v637c0 9 10 19 30 28s57 20 110 33V0H670v-43c48-13 83-24 106-33s34-19 34-28v-529c0-115-12-206-128-197-113 9-175 79-242 150-33 35-63 79-95 131v445c0 10 12 20 37 31s60 21 103 30V0H55v-43c44-11 78-22 103-31s37-19 37-30c-2-222 10-452-3-669-4-63-69-56-137-67v-40c94-15 166-44 240-80l35 35 11 249c76-114 178-213 309-264" id="as"/><path d="M244-229c1 78 37 129 108 129 118 0 190-59 271-127v-259c-164 29-303 49-363 176-11 23-16 50-16 81zm569 129c39-3 57-10 98-27l15 45C843-27 790 30 702 30c-22 0-40-15-55-46s-23-73-24-127C535-60 444 30 293 30 162 30 80-49 80-186c0-134 64-205 144-260 102-70 238-90 399-115v-141c0-108-55-164-168-158-89 5-163 44-163 136-28 38-109 56-170 57l-14-39c57-113 176-191 306-233 45-14 88-21 130-21 142-2 229 79 229 218v564c0 44 7 73 40 78" id="at"/><path d="M1253-960c142 3 222 76 222 219v637c0 9 10 19 31 28s57 20 110 33V0h-430v-43c48-13 84-24 106-33s33-19 33-28v-529c-3-110-5-214-113-207s-164 86-224 156c-27 32-53 70-78 111v469c0 9 10 19 31 28s57 20 110 33V0H621v-43c48-13 83-24 105-33s34-19 34-28v-529c-2-111-4-208-113-207-45 0-93 23-143 70S402-658 345-573v469c0 10 12 20 37 31s60 21 103 30V0H55v-43c44-11 78-22 103-31s37-19 37-30c-2-223 12-454-3-670-4-60-71-54-137-66v-40c94-15 168-44 240-80l35 35 11 229c73-105 152-197 269-248 28-12 54-16 78-16 159-1 228 90 222 256 70-102 150-191 264-240 28-12 54-16 79-16" id="au"/><path d="M702-616c0-134-64-239-206-239-165 0-232 127-260 275h428c31-1 38-6 38-36zm158 421C745-83 676 34 465 30 275 26 169-94 112-242c-53-136-32-337 26-447 68-129 169-238 330-265 260-43 390 140 398 397-25 28-71 51-110 67H230c4 167 66 294 174 358 36 21 77 32 122 32 145-2 206-68 297-136 15 7 29 29 37 41" id="av"/><g id="b"><use transform="matrix(0.010959201388888886,0,0,0.010959201388888886,0,0)" xlink:href="#as"/><use transform="matrix(0.010959201388888886,0,0,0.010959201388888886,12.383897569444441,0)" xlink:href="#at"/><use transform="matrix(0.010959201388888886,0,0,0.010959201388888886,22.685546874999996,0)" xlink:href="#au"/><use transform="matrix(0.010959201388888886,0,0,0.010959201388888886,40.713433159722214,0)" xlink:href="#av"/></g><path d="M70-1470c101-21 173-37 254-80l36 34v1412c0 10 11 20 34 31s61 21 116 30V0H60v-43c58-11 108-17 142-45 6-5 8-11 8-16v-1192c1-74-10-115-71-124-18-3-41-7-69-10v-40" id="aw"/><path d="M524-80c208-5 271-163 271-375 0-169-81-295-186-363-34-22-69-32-103-32-210 4-271 165-271 377 0 169 87 292 192 361 33 22 66 32 97 32zm182-844c181 81 290 312 227 570C890-178 778-47 614 10 446 69 274-10 194-105 108-206 49-397 96-574c47-176 153-307 318-366 94-34 208-22 292 16" id="ax"/><path d="M537-100c135-1 177-67 264-131l39 41C769-107 717-50 634-4c-84 47-221 46-312 2C175-75 80-225 80-444c0-244 136-395 309-476 134-63 354-48 436 39-1 63-33 121-57 164l-37-10c-42-97-207-161-333-99-111 55-168 180-168 351 0 172 77 291 192 349 37 18 75 26 115 26" id="ay"/><path d="M428-100c87 0 139-28 219-68l29 51C580-51 484 30 344 30 211 30 170-79 170-221v-614H41l-21-28 78-67h72v-246l119-104 31 25v325h327l29 29c-27 38-61 78-101 101-58-29-154-39-255-35v528c2 109 2 207 108 207" id="az"/><path d="M70-880c91-18 181-45 256-80h34v856c0 8 12 18 34 30s57 22 106 31V0H70v-43c45-9 80-20 104-31s36-21 36-30c-1-215 4-437-2-648-2-76-60-79-138-88v-40zm120-340c0-77 41-136 115-136 57 0 85 32 85 95 0 77-41 133-116 137-61 3-84-36-84-96" id="aA"/><g id="c"><use transform="matrix(0.010959201388888886,0,0,0.010959201388888886,0,0)" xlink:href="#aw"/><use transform="matrix(0.010959201388888886,0,0,0.010959201388888886,6.082356770833332,0)" xlink:href="#ax"/><use transform="matrix(0.010959201388888886,0,0,0.010959201388888886,17.370334201388886,0)" xlink:href="#ay"/><use transform="matrix(0.010959201388888886,0,0,0.010959201388888886,27.17881944444444,0)" xlink:href="#at"/><use transform="matrix(0.010959201388888886,0,0,0.010959201388888886,37.48046874999999,0)" xlink:href="#az"/><use transform="matrix(0.010959201388888886,0,0,0.010959201388888886,45.20670572916666,0)" xlink:href="#aA"/><use transform="matrix(0.010959201388888886,0,0,0.010959201388888886,51.289062499999986,0)" xlink:href="#ax"/><use transform="matrix(0.010959201388888886,0,0,0.010959201388888886,62.57703993055554,0)" xlink:href="#as"/></g><g id="d"><use transform="matrix(0.010959201388888886,0,0,0.010959201388888886,0,0)" xlink:href="#av"/><use transform="matrix(0.010959201388888886,0,0,0.010959201388888886,10.367404513888886,0)" xlink:href="#au"/><use transform="matrix(0.010959201388888886,0,0,0.010959201388888886,28.395290798611104,0)" xlink:href="#at"/><use transform="matrix(0.010959201388888886,0,0,0.010959201388888886,38.69694010416666,0)" xlink:href="#aA"/><use transform="matrix(0.010959201388888886,0,0,0.010959201388888886,44.779296874999986,0)" xlink:href="#aw"/></g><path d="M621-100c178 0 249-140 249-326 0-169-55-307-154-378-113-81-221 20-285 86-28 29-57 65-86 108v397c80 57 151 113 276 113zM55-880c89-19 167-45 240-80l35 35 9 198c79-93 166-176 283-219 127-47 238 29 294 110 71 103 116 296 74 463C948-205 861-59 719 8 577 76 437-21 345-98v473c0 11 12 21 37 32s69 21 132 30v43H55v-43c44-11 78-21 103-31s37-20 37-31V-711c2-68-10-110-65-121-18-4-43-7-75-8v-40" id="aB"/><path d="M476-842c-113-77-312 26-223 150 100 139 343 151 425 312 15 28 22 60 22 97C696-70 560 30 356 30c-91 0-181-34-250-73-23-59-6-180 7-240l43 11C172-142 267-70 406-70c100 0 164-57 164-157 0-138-150-165-248-222-99-58-218-104-218-251 0-171 126-260 297-260 104 0 202 29 263 77 8 53-30 112-50 150l-39-8c-32-48-67-79-99-101" id="aC"/><path d="M1425-887c-48 13-87 16-100 62L1104-59c-18 55-80 74-137 89L729-648 524-59c-19 53-75 76-133 89L129-825c-6-26-42-47-109-62v-43h386v43c-51 6-86 10-115 27-14 9-15 18-10 35l188 635 246-740h69l260 740 173-635c4-15-3-28-21-37s-50-18-96-25v-43h325v43" id="aD"/><path d="M55-880c84-23 173-41 240-80l35 35 13 227c49-98 107-192 201-242 70-37 169-17 226 17 24 78-21 183-43 247h-43c-6-91-72-186-162-126-91 61-140 179-177 306v392c0 10 12 20 37 31s69 21 132 30V0H55v-43c44-10 78-19 103-29s37-21 37-32c-1-212-2-429-2-638 0-85-55-98-138-98v-40" id="aE"/><path d="M600-1485c99-12 185-40 264-65l31 30c1 442-9 888 1 1326 1 47 0 102 56 94 17-3 46-12 86-27l13 43C976-39 923 30 829 30c-22 0-40-15-54-45s-23-81-28-154C662-73 586 30 416 30c-165 0-251-137-304-275-51-133-34-327 28-435 84-144 195-280 411-280 87 0 134 18 194 63-2-152 5-318-3-465-4-76-62-77-142-84v-39zM487-100c124 0 184-97 258-161v-469c-39-70-122-120-225-120-208 0-290 158-290 375 0 165 69 286 170 349 30 19 60 26 87 26" id="aF"/><g id="e"><use transform="matrix(0.010959201388888886,0,0,0.010959201388888886,0,0)" xlink:href="#aB"/><use transform="matrix(0.010959201388888886,0,0,0.010959201388888886,11.890733506944441,0)" xlink:href="#at"/><use transform="matrix(0.010959201388888886,0,0,0.010959201388888886,22.192382812499993,0)" xlink:href="#aC"/><use transform="matrix(0.010959201388888886,0,0,0.010959201388888886,30.8611111111111,0)" xlink:href="#aC"/><use transform="matrix(0.010959201388888886,0,0,0.010959201388888886,39.52983940972221,0)" xlink:href="#aD"/><use transform="matrix(0.010959201388888886,0,0,0.010959201388888886,55.376844618055536,0)" xlink:href="#ax"/><use transform="matrix(0.010959201388888886,0,0,0.010959201388888886,66.66482204861109,0)" xlink:href="#aE"/><use transform="matrix(0.010959201388888886,0,0,0.010959201388888886,75.55273437499997,0)" xlink:href="#aF"/></g><path d="M240-174c0 40-23 61-54 70L253 0h-59l-57-94H76V0H24v-248c93 4 217-23 216 74zM76-134c48-2 112 12 112-38 0-48-66-32-112-35v73" id="aG"/><path d="M110-194c64 0 96 36 96 99 0 64-35 99-97 99-61 0-95-36-95-99 0-62 34-99 96-99zm-1 164c35 0 45-28 45-65 0-40-10-65-43-65-34 0-45 26-45 65 0 36 10 65 43 65" id="aH"/><g id="f"><use transform="matrix(0.06234567901234567,0,0,0.06234567901234567,0,0)" xlink:href="#aG"/><use transform="matrix(0.06234567901234567,0,0,0.06234567901234567,16.147530864197527,0)" xlink:href="#aH"/><use transform="matrix(0.06234567901234567,0,0,0.06234567901234567,29.80123456790123,0)" xlink:href="#aH"/><use transform="matrix(0.06234567901234567,0,0,0.06234567901234567,43.45493827160493,0)" xlink:href="#aq"/></g><path fill="#333" d="M70-880c91-18 181-45 256-80h34v856c0 8 12 18 34 30s57 22 106 31V0H70v-43c45-9 80-20 104-31s36-21 36-30c-1-215 4-437-2-648-2-76-60-79-138-88v-40zm120-340c0-77 41-136 115-136 57 0 85 32 85 95 0 77-41 133-116 137-61 3-84-36-84-96" id="aI"/><path fill="#333" d="M600-1485c99-12 185-40 264-65l31 30c1 442-9 888 1 1326 1 47 0 102 56 94 17-3 46-12 86-27l13 43C976-39 923 30 829 30c-22 0-40-15-54-45s-23-81-28-154C662-73 586 30 416 30c-165 0-251-137-304-275-51-133-34-327 28-435 84-144 195-280 411-280 87 0 134 18 194 63-2-152 5-318-3-465-4-76-62-77-142-84v-39zM487-100c124 0 184-97 258-161v-469c-39-70-122-120-225-120-208 0-290 158-290 375 0 165 69 286 170 349 30 19 60 26 87 26" id="aJ"/><path fill="#333" d="M270-236c68-4 101 44 99 113-2 93-48 159-138 163-73 3-100-40-100-112 0-92 50-159 139-164zm0-725c68-4 101 44 99 113-2 93-48 159-138 163-73 3-100-40-100-112 0-92 50-159 139-164" id="aK"/><g id="g"><use transform="matrix(0.010959201388888886,0,0,0.010959201388888886,0,0)" xlink:href="#aI"/><use transform="matrix(0.010959201388888886,0,0,0.010959201388888886,6.082356770833332,0)" xlink:href="#aJ"/><use transform="matrix(0.010959201388888886,0,0,0.010959201388888886,17.753906249999996,0)" xlink:href="#aK"/></g><path fill="#333" d="M827-895c-4-253-205-327-472-309v1100c14 29 50 33 89 44 22 6 51 11 86 17V0H50v-43c45-9 80-20 106-31s39-21 39-30v-1086c-49 7-98 14-145 22l-9-62c232-60 630-108 813 31 74 57 128 138 128 263 0 227-142 340-324 390-84 23-181 10-246-19l-23-75c109 54 271 27 342-42 50-49 97-115 96-213" id="aL"/><path fill="#333" d="M55-880c84-23 173-41 240-80l35 35 13 227c49-98 107-192 201-242 70-37 169-17 226 17 24 78-21 183-43 247h-43c-6-91-72-186-162-126-91 61-140 179-177 306v392c0 10 12 20 37 31s69 21 132 30V0H55v-43c44-10 78-19 103-29s37-21 37-32c-1-212-2-429-2-638 0-85-55-98-138-98v-40" id="aM"/><path fill="#333" d="M524-80c208-5 271-163 271-375 0-169-81-295-186-363-34-22-69-32-103-32-210 4-271 165-271 377 0 169 87 292 192 361 33 22 66 32 97 32zm182-844c181 81 290 312 227 570C890-178 778-47 614 10 446 69 274-10 194-105 108-206 49-397 96-574c47-176 153-307 318-366 94-34 208-22 292 16" id="aN"/><path fill="#333" d="M514-400c110 0 176-82 176-200 0-166-103-260-274-260-106 0-176 85-176 201 0 168 101 259 274 259zM392 378c206 50 428-17 428-221 0-87-73-105-152-128C598 9 468 2 388-16c-76 41-128 76-176 126-40 42-42 111-4 160 41 53 107 89 184 108zM775-813c59 73 75 219 21 313-68 117-190 200-366 205-43 36-68 61-84 99 14 50 70 52 128 66 83 20 239 29 308 56 99 38 188 77 188 194 0 182-136 265-268 330-178 88-489 47-600-64-47-46-97-127-62-212C84 67 186 21 297-42c-66-25-106-47-115-111 21-77 83-108 144-156-131-40-226-128-226-293 0-172 116-273 243-330 114-51 271-27 350 37 106-10 195-34 276-65l20 30c-18 41-27 68-57 100-53 10-96 14-157 17" id="aO"/><path fill="#333" d="M702-616c0-134-64-239-206-239-165 0-232 127-260 275h428c31-1 38-6 38-36zm158 421C745-83 676 34 465 30 275 26 169-94 112-242c-53-136-32-337 26-447 68-129 169-238 330-265 260-43 390 140 398 397-25 28-71 51-110 67H230c4 167 66 294 174 358 36 21 77 32 122 32 145-2 206-68 297-136 15 7 29 29 37 41" id="aP"/><path fill="#333" d="M476-842c-113-77-312 26-223 150 100 139 343 151 425 312 15 28 22 60 22 97C696-70 560 30 356 30c-91 0-181-34-250-73-23-59-6-180 7-240l43 11C172-142 267-70 406-70c100 0 164-57 164-157 0-138-150-165-248-222-99-58-218-104-218-251 0-171 126-260 297-260 104 0 202 29 263 77 8 53-30 112-50 150l-39-8c-32-48-67-79-99-101" id="aQ"/><path fill="#333" d="M989-887c-52 13-92 20-110 68L596-59c-22 51-77 75-135 89L131-819c-17-46-54-54-111-68v-43h386v43c-42 6-74 10-102 23-18 10-19 23-11 45l246 641 231-641c16-61-51-55-104-68v-43h323v43" id="aR"/><g id="h"><use transform="matrix(0.010959201388888886,0,0,0.010959201388888886,0,0)" xlink:href="#aL"/><use transform="matrix(0.010959201388888886,0,0,0.010959201388888886,11.737304687499996,0)" xlink:href="#aM"/><use transform="matrix(0.010959201388888886,0,0,0.010959201388888886,20.625217013888886,0)" xlink:href="#aN"/><use transform="matrix(0.010959201388888886,0,0,0.010959201388888886,31.913194444444436,0)" xlink:href="#aO"/><use transform="matrix(0.010959201388888886,0,0,0.010959201388888886,42.861436631944436,0)" xlink:href="#aM"/><use transform="matrix(0.010959201388888886,0,0,0.010959201388888886,51.74934895833332,0)" xlink:href="#aP"/><use transform="matrix(0.010959201388888886,0,0,0.010959201388888886,62.11675347222221,0)" xlink:href="#aQ"/><use transform="matrix(0.010959201388888886,0,0,0.010959201388888886,70.78548177083331,0)" xlink:href="#aQ"/><use transform="matrix(0.010959201388888886,0,0,0.010959201388888886,79.45421006944443,0)" xlink:href="#aI"/><use transform="matrix(0.010959201388888886,0,0,0.010959201388888886,85.53656684027776,0)" xlink:href="#aR"/><use transform="matrix(0.010959201388888886,0,0,0.010959201388888886,96.60536024305553,0)" xlink:href="#aP"/></g><path d="M169-182c-1-43-94-46-97-3 18 66 151 10 154 114 3 95-165 93-204 36-6-8-10-19-12-30l50-8c3 46 112 56 116 5-17-69-150-10-154-114-4-87 153-88 188-35 5 8 8 18 10 28" id="aS"/><path d="M115-3C79 11 28 4 28-45v-112H4v-33h27l15-45h31v45h36v33H77v99c-1 23 16 31 38 25v30" id="aT"/><g id="i"><use transform="matrix(0.06234567901234567,0,0,0.06234567901234567,0,0)" xlink:href="#aS"/><use transform="matrix(0.06234567901234567,0,0,0.06234567901234567,14.96296296296296,0)" xlink:href="#ap"/><use transform="matrix(0.06234567901234567,0,0,0.06234567901234567,27.432098765432094,0)" xlink:href="#ar"/><use transform="matrix(0.06234567901234567,0,0,0.06234567901234567,39.90123456790123,0)" xlink:href="#aT"/></g><path fill="#333" d="M428-100c87 0 139-28 219-68l29 51C580-51 484 30 344 30 211 30 170-79 170-221v-614H41l-21-28 78-67h72v-246l119-104 31 25v325h327l29 29c-27 38-61 78-101 101-58-29-154-39-255-35v528c2 109 2 207 108 207" id="aU"/><path fill="#333" d="M989-887c-52 13-92 20-110 68L545 82c-68 175-157 318-312 394-82 40-204 31-267-10-36-23 17-59 29-82 20-24 50-56 75-72 66 43 171 40 222-10 73-71 126-174 167-279L131-819c-17-46-54-54-111-68v-43h386v43c-42 6-74 10-102 23-18 10-19 23-11 45l246 637 231-637c13-61-61-54-115-68v-43h334v43" id="aV"/><path fill="#333" d="M621-100c178 0 249-140 249-326 0-169-55-307-154-378-113-81-221 20-285 86-28 29-57 65-86 108v397c80 57 151 113 276 113zM55-880c89-19 167-45 240-80l35 35 9 198c79-93 166-176 283-219 127-47 238 29 294 110 71 103 116 296 74 463C948-205 861-59 719 8 577 76 437-21 345-98v473c0 11 12 21 37 32s69 21 132 30v43H55v-43c44-11 78-21 103-31s37-20 37-31V-711c2-68-10-110-65-121-18-4-43-7-75-8v-40" id="aW"/><g id="j"><use transform="matrix(0.010959201388888886,0,0,0.010959201388888886,0,0)" xlink:href="#aU"/><use transform="matrix(0.010959201388888886,0,0,0.010959201388888886,7.726236979166665,0)" xlink:href="#aV"/><use transform="matrix(0.010959201388888886,0,0,0.010959201388888886,18.79503038194444,0)" xlink:href="#aW"/><use transform="matrix(0.010959201388888886,0,0,0.010959201388888886,30.68576388888888,0)" xlink:href="#aP"/><use transform="matrix(0.010959201388888886,0,0,0.010959201388888886,41.053168402777764,0)" xlink:href="#aK"/></g><path fill="#333" d="M340-863c6-160-79-301-18-459 53-136 168-217 301-278l26 47c-97 64-180 146-184 301-3 134 46 195 41 329-5 139-79 223-180 270 128 22 180 118 180 268 0 136-38 211-41 342-3 166 66 240 174 297l-23 61C445 243 301 163 299-72c-1-140 41-208 41-350 0-129-91-185-221-158l-17-53c128-33 233-100 238-230" id="aX"/><use transform="matrix(0.010959201388888886,0,0,0.010959201388888886,0,0)" xlink:href="#aX" id="k"/><path fill="#333" d="M195-1149c-39-38-85-58-145-68v-43c78 1 162-3 236 2 36 15 48 43 72 76l657 906v-879c0-8-11-18-33-31s-59-24-112-31v-43h410v43c-48 7-84 16-108 29s-37 24-37 33V30c-55-6-97-20-119-51L315-993v889c0 8 11 18 33 31s60 23 112 30V0H50v-43c49-6 86-15 110-28s35-24 35-33v-1045" id="aY"/><path fill="#333" d="M1253-960c142 3 222 76 222 219v637c0 9 10 19 31 28s57 20 110 33V0h-430v-43c48-13 84-24 106-33s33-19 33-28v-529c-3-110-5-214-113-207s-164 86-224 156c-27 32-53 70-78 111v469c0 9 10 19 31 28s57 20 110 33V0H621v-43c48-13 83-24 105-33s34-19 34-28v-529c-2-111-4-208-113-207-45 0-93 23-143 70S402-658 345-573v469c0 10 12 20 37 31s60 21 103 30V0H55v-43c44-11 78-22 103-31s37-19 37-30c-2-223 12-454-3-670-4-60-71-54-137-66v-40c94-15 168-44 240-80l35 35 11 229c73-105 152-197 269-248 28-12 54-16 78-16 159-1 228 90 222 256 70-102 150-191 264-240 28-12 54-16 79-16" id="aZ"/><path fill="#333" d="M244-229c1 78 37 129 108 129 118 0 190-59 271-127v-259c-164 29-303 49-363 176-11 23-16 50-16 81zm569 129c39-3 57-10 98-27l15 45C843-27 790 30 702 30c-22 0-40-15-55-46s-23-73-24-127C535-60 444 30 293 30 162 30 80-49 80-186c0-134 64-205 144-260 102-70 238-90 399-115v-141c0-108-55-164-168-158-89 5-163 44-163 136-28 38-109 56-170 57l-14-39c57-113 176-191 306-233 45-14 88-21 130-21 142-2 229 79 229 218v564c0 44 7 73 40 78" id="ba"/><path fill="#333" d="M70-1470c101-21 173-37 254-80l36 34v1412c0 10 11 20 34 31s61 21 116 30V0H60v-43c58-11 108-17 142-45 6-5 8-11 8-16v-1192c1-74-10-115-71-124-18-3-41-7-69-10v-40" id="bb"/><path fill="#333" d="M226 0c-1-66-45-99-122-92l-16-47c52-42 138-80 221-90 123 47 79 257 21 347-44 69-98 138-164 187l-45-35c60-69 107-142 105-270" id="bc"/><g id="l"><use transform="matrix(0.010959201388888886,0,0,0.010959201388888886,0,0)" xlink:href="#aY"/><use transform="matrix(0.010959201388888886,0,0,0.010959201388888886,14.56477864583333,0)" xlink:href="#aN"/><use transform="matrix(0.010959201388888886,0,0,0.010959201388888886,25.85275607638889,0)" xlink:href="#aM"/><use transform="matrix(0.010959201388888886,0,0,0.010959201388888886,34.74066840277777,0)" xlink:href="#aZ"/><use transform="matrix(0.010959201388888886,0,0,0.010959201388888886,52.768554687499986,0)" xlink:href="#ba"/><use transform="matrix(0.010959201388888886,0,0,0.010959201388888886,63.07020399305554,0)" xlink:href="#bb"/><use transform="matrix(0.010959201388888886,0,0,0.010959201388888886,69.15256076388887,0)" xlink:href="#bc"/></g><path fill="#333" d="M625-894c93-10 183-41 260-66l30 39c3 254-10 522 5 768 3 45 10 60 59 53 19-3 46-12 80-27l10 45C999-41 935 10 850 30c-23 0-42-15-57-46s-24-81-28-150C662-71 581 30 408 30 229 30 171-92 170-279c-1-167 6-345-3-507-4-64-60-59-126-68v-40c97-10 173-35 251-66l28 39v587c2 135 23 244 153 244 143 0 210-92 292-172-2-172 9-357-5-521-6-63-63-67-135-71v-40" id="bd"/><g id="m"><use transform="matrix(0.010959201388888886,0,0,0.010959201388888886,0,0)" xlink:href="#aL"/><use transform="matrix(0.010959201388888886,0,0,0.010959201388888886,11.737304687499996,0)" xlink:href="#aM"/><use transform="matrix(0.010959201388888886,0,0,0.010959201388888886,20.625217013888886,0)" xlink:href="#aP"/><use transform="matrix(0.010959201388888886,0,0,0.010959201388888886,30.99262152777777,0)" xlink:href="#aZ"/><use transform="matrix(0.010959201388888886,0,0,0.010959201388888886,49.020507812499986,0)" xlink:href="#aI"/><use transform="matrix(0.010959201388888886,0,0,0.010959201388888886,55.10286458333331,0)" xlink:href="#bd"/><use transform="matrix(0.010959201388888886,0,0,0.010959201388888886,66.99359809027776,0)" xlink:href="#aZ"/></g><path fill="#333" d="M350-865c0 128 91 188 221 158l17 56c-129 34-233 96-238 229-6 159 76 301 16 457-53 136-168 218-300 280l-27-49c97-63 180-146 184-301 3-134-44-195-39-330 5-139 80-219 181-266-129-23-181-118-181-271 0-135 36-210 39-340 4-168-65-240-174-297l23-61c172 70 315 151 317 385 1 140-39 209-39 350" id="be"/><use transform="matrix(0.010959201388888886,0,0,0.010959201388888886,0,0)" xlink:href="#be" id="n"/><path d="M24-248c93 1 206-16 204 79-1 75-69 88-152 82V0H24v-248zm52 121c47 0 100 7 100-41 0-47-54-39-100-39v80" id="bf"/><path d="M135-150c-39-12-60 13-60 57V0H25l-1-190h47c2 13-1 29 3 40 6-28 27-53 61-41v41" id="bg"/><path d="M25-224v-37h50v37H25zM75 22c2 45-34 59-81 51V38c22 5 31-5 31-27v-201h50V22" id="bh"/><path d="M190-63c-7 42-38 67-86 67-59 0-84-38-90-98-12-110 154-137 174-36l-49 2c-2-19-15-32-35-32-30 0-35 28-38 64-6 74 65 87 74 30" id="bi"/><g id="o"><use transform="matrix(0.06234567901234567,0,0,0.06234567901234567,0,0)" xlink:href="#bf"/><use transform="matrix(0.06234567901234567,0,0,0.06234567901234567,14.96296296296296,0)" xlink:href="#bg"/><use transform="matrix(0.06234567901234567,0,0,0.06234567901234567,23.691358024691354,0)" xlink:href="#aH"/><use transform="matrix(0.06234567901234567,0,0,0.06234567901234567,37.34506172839505,0)" xlink:href="#bh"/><use transform="matrix(0.06234567901234567,0,0,0.06234567901234567,43.57962962962962,0)" xlink:href="#ap"/><use transform="matrix(0.06234567901234567,0,0,0.06234567901234567,56.048765432098755,0)" xlink:href="#bi"/><use transform="matrix(0.06234567901234567,0,0,0.06234567901234567,68.51790123456789,0)" xlink:href="#aT"/><use transform="matrix(0.06234567901234567,0,0,0.06234567901234567,75.93703703703702,0)" xlink:href="#an"/><use transform="matrix(0.06234567901234567,0,0,0.06234567901234567,82.17160493827159,0)" xlink:href="#aH"/><use transform="matrix(0.06234567901234567,0,0,0.06234567901234567,95.82530864197528,0)" xlink:href="#ao"/></g><g id="p"><use transform="matrix(0.010959201388888886,0,0,0.010959201388888886,0,0)" xlink:href="#aI"/><use transform="matrix(0.010959201388888886,0,0,0.010959201388888886,6.082356770833332,0)" xlink:href="#aJ"/></g><path fill="#333" d="M1083-1235c-3 78-16 161-30 235h-45c-17-64-17-127-58-161-8-7-21-9-35-9H631v1055c0 9 12 20 36 33s67 26 128 39V0H307v-43c63-13 116-26 155-57 6-6 9-10 9-15v-1055H172c-52 3-59 40-81 82-12 23-23 54-38 93l-43-19c7-76 18-178 33-246h1010" id="bj"/><g id="q"><use transform="matrix(0.010959201388888886,0,0,0.010959201388888886,0,0)" xlink:href="#aJ"/><use transform="matrix(0.010959201388888886,0,0,0.010959201388888886,11.671549479166664,0)" xlink:href="#ba"/><use transform="matrix(0.010959201388888886,0,0,0.010959201388888886,21.973198784722218,0)" xlink:href="#aU"/><use transform="matrix(0.010959201388888886,0,0,0.010959201388888886,29.699435763888882,0)" xlink:href="#aP"/><use transform="matrix(0.010959201388888886,0,0,0.010959201388888886,40.06684027777777,0)" xlink:href="#bj"/><use transform="matrix(0.010959201388888886,0,0,0.010959201388888886,52.428819444444436,0)" xlink:href="#aI"/><use transform="matrix(0.010959201388888886,0,0,0.010959201388888886,58.51117621527777,0)" xlink:href="#aZ"/><use transform="matrix(0.010959201388888886,0,0,0.010959201388888886,76.53906249999999,0)" xlink:href="#aP"/></g><path fill="#333" d="M537-100c135-1 177-67 264-131l39 41C769-107 717-50 634-4c-84 47-221 46-312 2C175-75 80-225 80-444c0-244 136-395 309-476 134-63 354-48 436 39-1 63-33 121-57 164l-37-10c-42-97-207-161-333-99-111 55-168 180-168 351 0 172 77 291 192 349 37 18 75 26 115 26" id="bk"/><g id="r"><use transform="matrix(0.010959201388888886,0,0,0.010959201388888886,0,0)" xlink:href="#aW"/><use transform="matrix(0.010959201388888886,0,0,0.010959201388888886,11.890733506944441,0)" xlink:href="#aM"/><use transform="matrix(0.010959201388888886,0,0,0.010959201388888886,20.77864583333333,0)" xlink:href="#aI"/><use transform="matrix(0.010959201388888886,0,0,0.010959201388888886,26.86100260416666,0)" xlink:href="#bk"/><use transform="matrix(0.010959201388888886,0,0,0.010959201388888886,36.669487847222214,0)" xlink:href="#aP"/></g><path d="M135-194c53 0 70 44 70 98 0 56-19 98-73 100-31 1-45-17-59-34 3 33 2 69 2 105H25l-1-265h48c2 10 0 23 3 31 11-24 29-35 60-35zM114-30c33 0 39-31 40-66 0-38-9-64-40-64-56 0-55 130 0 130" id="bl"/><g id="s"><use transform="matrix(0.06234567901234567,0,0,0.06234567901234567,0,0)" xlink:href="#aS"/><use transform="matrix(0.06234567901234567,0,0,0.06234567901234567,14.96296296296296,0)" xlink:href="#bl"/><use transform="matrix(0.06234567901234567,0,0,0.06234567901234567,28.61666666666666,0)" xlink:href="#ap"/><use transform="matrix(0.06234567901234567,0,0,0.06234567901234567,41.08580246913579,0)" xlink:href="#bi"/><use transform="matrix(0.06234567901234567,0,0,0.06234567901234567,53.554938271604925,0)" xlink:href="#aT"/><use transform="matrix(0.06234567901234567,0,0,0.06234567901234567,60.97407407407406,0)" xlink:href="#ar"/><use transform="matrix(0.06234567901234567,0,0,0.06234567901234567,73.4432098765432,0)" xlink:href="#aT"/><use transform="matrix(0.06234567901234567,0,0,0.06234567901234567,80.86234567901232,0)" xlink:href="#aH"/><use transform="matrix(0.06234567901234567,0,0,0.06234567901234567,94.51604938271602,0)" xlink:href="#bg"/></g><path fill="#333" d="M650-940c160-62 310 29 310 199v637c0 9 10 19 30 28s57 20 110 33V0H670v-43c48-13 83-24 106-33s34-19 34-28v-529c0-115-12-206-128-197-113 9-175 79-242 150-33 35-63 79-95 131v445c0 10 12 20 37 31s60 21 103 30V0H55v-43c44-11 78-22 103-31s37-19 37-30c-2-222 10-452-3-669-4-63-69-56-137-67v-40c94-15 166-44 240-80l35 35 11 249c76-114 178-213 309-264" id="bm"/><g id="t"><use transform="matrix(0.010959201388888886,0,0,0.010959201388888886,0,0)" xlink:href="#bm"/><use transform="matrix(0.010959201388888886,0,0,0.010959201388888886,12.383897569444441,0)" xlink:href="#ba"/><use transform="matrix(0.010959201388888886,0,0,0.010959201388888886,22.685546874999996,0)" xlink:href="#aZ"/><use transform="matrix(0.010959201388888886,0,0,0.010959201388888886,40.713433159722214,0)" xlink:href="#aP"/></g><g id="u"><use transform="matrix(0.010959201388888886,0,0,0.010959201388888886,0,0)" xlink:href="#aQ"/><use transform="matrix(0.010959201388888886,0,0,0.010959201388888886,8.668728298611109,0)" xlink:href="#bd"/><use transform="matrix(0.010959201388888886,0,0,0.010959201388888886,20.55946180555555,0)" xlink:href="#aM"/><use transform="matrix(0.010959201388888886,0,0,0.010959201388888886,29.44737413194444,0)" xlink:href="#bm"/><use transform="matrix(0.010959201388888886,0,0,0.010959201388888886,41.83127170138888,0)" xlink:href="#ba"/><use transform="matrix(0.010959201388888886,0,0,0.010959201388888886,52.132921006944436,0)" xlink:href="#aZ"/><use transform="matrix(0.010959201388888886,0,0,0.010959201388888886,70.16080729166664,0)" xlink:href="#aP"/></g><g id="v"><use transform="matrix(0.010959201388888886,0,0,0.010959201388888886,0,0)" xlink:href="#aP"/><use transform="matrix(0.010959201388888886,0,0,0.010959201388888886,10.367404513888886,0)" xlink:href="#aZ"/><use transform="matrix(0.010959201388888886,0,0,0.010959201388888886,28.395290798611104,0)" xlink:href="#ba"/><use transform="matrix(0.010959201388888886,0,0,0.010959201388888886,38.69694010416666,0)" xlink:href="#aI"/><use transform="matrix(0.010959201388888886,0,0,0.010959201388888886,44.779296874999986,0)" xlink:href="#bb"/></g><path d="M123 10C108 53 80 86 19 72V37c35 8 53-11 59-39L3-190h52l48 148c12-52 28-100 44-148h51" id="bn"/><path d="M88-194c31-1 46 15 58 34l-1-101h50l1 261h-48c-2-10 0-23-3-31C134-8 116 4 84 4 32 4 16-41 15-95c0-56 19-97 73-99zm17 164c33 0 40-30 41-66 1-37-9-64-41-64s-38 30-39 65c0 43 13 65 39 65" id="bo"/><g id="w"><use transform="matrix(0.06234567901234567,0,0,0.06234567901234567,0,0)" xlink:href="#bf"/><use transform="matrix(0.06234567901234567,0,0,0.06234567901234567,14.96296296296296,0)" xlink:href="#ar"/><use transform="matrix(0.06234567901234567,0,0,0.06234567901234567,27.432098765432094,0)" xlink:href="#bn"/><use transform="matrix(0.06234567901234567,0,0,0.06234567901234567,39.90123456790123,0)" xlink:href="#aq"/><use transform="matrix(0.06234567901234567,0,0,0.06234567901234567,59.85185185185184,0)" xlink:href="#ap"/><use transform="matrix(0.06234567901234567,0,0,0.06234567901234567,72.32098765432097,0)" xlink:href="#ao"/><use transform="matrix(0.06234567901234567,0,0,0.06234567901234567,85.97469135802467,0)" xlink:href="#aT"/><use transform="matrix(0.06234567901234567,0,0,0.06234567901234567,93.3938271604938,0)" xlink:href="#am"/><use transform="matrix(0.06234567901234567,0,0,0.06234567901234567,109.54135802469133,0)" xlink:href="#ar"/><use transform="matrix(0.06234567901234567,0,0,0.06234567901234567,122.01049382716047,0)" xlink:href="#bg"/><use transform="matrix(0.06234567901234567,0,0,0.06234567901234567,130.73888888888888,0)" xlink:href="#bo"/></g><path fill="#333" d="M70 0v-43c45-9 80-20 106-31s39-21 39-30v-1051c0-8-13-18-37-30s-60-23-108-32v-43h450v43c-45 9-80 20-106 31s-39 22-39 31v1051c0 8 13 18 37 30s60 22 108 31V0H70" id="bp"/><path fill="#333" d="M750-971c0-203-179-243-395-233v479c223 3 395-42 395-246zm102 649c0-198-123-323-332-328-61-2-114 7-165 15v531c9 29 60 26 93 30 219 24 404-45 404-248zM715-723c175 42 301 161 301 367 0 256-195 365-457 370C385 17 226 0 50 0v-43c45-9 80-20 106-31s39-21 39-30v-1086c-49 6-98 14-145 22l-9-62c252-70 710-117 833 97 20 33 31 71 31 113 1 149-79 256-190 297" id="bq"/><path fill="#333" d="M758-535l-176-514-171 514h347zm-377 90L270-111c-7 21 2 36 27 45s64 17 119 23V0H0v-43c72-17 140-14 158-68l372-1126c26-31 81-60 117-80l420 1206c17 49 70 59 131 68V0H776v-43c52-3 88-10 108-20s26-26 19-48L789-445H381" id="br"/><g id="x"><use transform="matrix(0.010959201388888886,0,0,0.010959201388888886,0,0)" xlink:href="#bp"/><use transform="matrix(0.010959201388888886,0,0,0.010959201388888886,6.6851128472222205,0)" xlink:href="#bq"/><use transform="matrix(0.010959201388888886,0,0,0.010959201388888886,19.025173611111107,0)" xlink:href="#br"/><use transform="matrix(0.010959201388888886,0,0,0.010959201388888886,32.38444010416666,0)" xlink:href="#aY"/></g><path fill="#333" d="M50 0v-43c45-9 80-20 106-31s39-21 39-30v-1051c0-8-13-18-37-30s-60-23-108-32v-43h450v43c-45 9-80 20-106 31s-39 22-39 31v450h610v-450c0-8-13-18-37-30s-60-23-108-32v-43h450v43c-45 9-80 20-106 31s-39 22-39 31v1051c0 8 13 18 37 30s60 22 108 31V0H820v-43c45-9 80-20 106-31s39-21 39-30v-511H355v511c0 8 12 18 36 30s60 22 109 31V0H50" id="bs"/><g id="y"><use transform="matrix(0.010959201388888886,0,0,0.010959201388888886,0,0)" xlink:href="#ba"/><use transform="matrix(0.010959201388888886,0,0,0.010959201388888886,10.301649305555554,0)" xlink:href="#bk"/><use transform="matrix(0.010959201388888886,0,0,0.010959201388888886,20.110134548611107,0)" xlink:href="#bk"/><use transform="matrix(0.010959201388888886,0,0,0.010959201388888886,29.91861979166666,0)" xlink:href="#aN"/><use transform="matrix(0.010959201388888886,0,0,0.010959201388888886,41.206597222222214,0)" xlink:href="#bd"/><use transform="matrix(0.010959201388888886,0,0,0.010959201388888886,53.09733072916666,0)" xlink:href="#bm"/><use transform="matrix(0.010959201388888886,0,0,0.010959201388888886,65.4812282986111,0)" xlink:href="#aU"/><use transform="matrix(0.010959201388888886,0,0,0.010959201388888886,73.20746527777777,0)" xlink:href="#bs"/><use transform="matrix(0.010959201388888886,0,0,0.010959201388888886,87.88183593749999,0)" xlink:href="#aN"/><use transform="matrix(0.010959201388888886,0,0,0.010959201388888886,99.16981336805556,0)" xlink:href="#bb"/><use transform="matrix(0.010959201388888886,0,0,0.010959201388888886,105.25217013888887,0)" xlink:href="#aJ"/><use transform="matrix(0.010959201388888886,0,0,0.010959201388888886,116.92371961805554,0)" xlink:href="#aP"/><use transform="matrix(0.010959201388888886,0,0,0.010959201388888886,127.29112413194443,0)" xlink:href="#aM"/></g><path fill="#333" d="M643-90c139 0 229-76 338-166 16 9 25 31 37 45C897-92 790 30 571 30c-244 0-382-164-457-356-62-157-55-393 4-550 62-166 175-290 325-364 173-85 445-50 556 50-6 49-64 89-90 123l-35-6c-75-71-215-142-356-95-201 67-293 270-293 545 0 250 106 418 273 499 49 24 98 34 145 34" id="bt"/><g id="z"><use transform="matrix(0.010959201388888886,0,0,0.010959201388888886,0,0)" xlink:href="#aQ"/><use transform="matrix(0.010959201388888886,0,0,0.010959201388888886,8.668728298611109,0)" xlink:href="#aP"/><use transform="matrix(0.010959201388888886,0,0,0.010959201388888886,19.036132812499993,0)" xlink:href="#bk"/><use transform="matrix(0.010959201388888886,0,0,0.010959201388888886,28.84461805555555,0)" xlink:href="#bd"/><use transform="matrix(0.010959201388888886,0,0,0.010959201388888886,40.735351562499986,0)" xlink:href="#aM"/><use transform="matrix(0.010959201388888886,0,0,0.010959201388888886,49.623263888888864,0)" xlink:href="#aI"/><use transform="matrix(0.010959201388888886,0,0,0.010959201388888886,55.7056206597222,0)" xlink:href="#aU"/><use transform="matrix(0.010959201388888886,0,0,0.010959201388888886,63.431857638888864,0)" xlink:href="#aV"/><use transform="matrix(0.010959201388888886,0,0,0.010959201388888886,74.50065104166664,0)" xlink:href="#bt"/><use transform="matrix(0.010959201388888886,0,0,0.010959201388888886,86.53385416666664,0)" xlink:href="#aN"/><use transform="matrix(0.010959201388888886,0,0,0.010959201388888886,97.8218315972222,0)" xlink:href="#aJ"/><use transform="matrix(0.010959201388888886,0,0,0.010959201388888886,109.49338107638886,0)" xlink:href="#aP"/></g><path fill="#333" d="M451-887c-43 7-97 6-97 49 0 10 7 23 19 39l161 222 154-222c31-32 25-73-21-80-15-2-32-6-53-8v-43h381v43c-99 7-155 33-196 90L589-502l267 365c37 47 83 85 160 94V0H614v-43c40-6 91-4 94-45 0-11-7-25-20-43L490-400 301-131c-50 68 34 86 98 88V0H20v-43c82-11 135-41 173-94l243-338c-87-118-171-239-261-355-30-38-78-52-144-57v-43h420v43" id="bu"/><path fill="#333" d="M953-637c0-380-192-600-598-566v1049c2 43 22 54 64 62 81 16 187 12 261-26 167-87 273-261 273-519zM41-1230c204-49 518-97 728-18 221 83 354 271 354 572 0 362-159 580-441 660C639-4 598 0 559 0H50v-43c45-9 80-20 106-31s39-21 39-30v-1084c-50 6-98 13-145 20" id="bv"/><g id="A"><use transform="matrix(0.010959201388888886,0,0,0.010959201388888886,0,0)" xlink:href="#aP"/><use transform="matrix(0.010959201388888886,0,0,0.010959201388888886,10.367404513888886,0)" xlink:href="#bu"/><use transform="matrix(0.010959201388888886,0,0,0.010959201388888886,21.65538194444444,0)" xlink:href="#aW"/><use transform="matrix(0.010959201388888886,0,0,0.010959201388888886,33.54611545138888,0)" xlink:href="#aI"/><use transform="matrix(0.010959201388888886,0,0,0.010959201388888886,39.628472222222214,0)" xlink:href="#aM"/><use transform="matrix(0.010959201388888886,0,0,0.010959201388888886,48.5163845486111,0)" xlink:href="#ba"/><use transform="matrix(0.010959201388888886,0,0,0.010959201388888886,58.81803385416665,0)" xlink:href="#aU"/><use transform="matrix(0.010959201388888886,0,0,0.010959201388888886,66.54427083333333,0)" xlink:href="#aI"/><use transform="matrix(0.010959201388888886,0,0,0.010959201388888886,72.62662760416666,0)" xlink:href="#aN"/><use transform="matrix(0.010959201388888886,0,0,0.010959201388888886,83.91460503472221,0)" xlink:href="#bm"/><use transform="matrix(0.010959201388888886,0,0,0.010959201388888886,96.29850260416667,0)" xlink:href="#bv"/><use transform="matrix(0.010959201388888886,0,0,0.010959201388888886,109.60297309027777,0)" xlink:href="#ba"/><use transform="matrix(0.010959201388888886,0,0,0.010959201388888886,119.90462239583333,0)" xlink:href="#aU"/><use transform="matrix(0.010959201388888886,0,0,0.010959201388888886,127.63085937499999,0)" xlink:href="#aP"/></g><path fill="#c92d39" d="M56-719h580c77 0 140 63 140 139v194c0 76-63 139-140 139-149 0-301 2-448 0V0H56v-719zm587 333v-194c0-4-3-7-7-7H195c-4 0-7 3-7 7v194c0 4 3 7 7 7h441c4 0 7-3 7-7" id="bw"/><path fill="#c92d39" d="M775-580v194c-3 89-75 152-179 139L775-34V0H631L423-247H187V0H55v-719h580c77 0 140 63 140 139zM194-379h441c4 0 7-3 7-7v-194c0-4-3-7-7-7H194c-4 0-7 3-7 7v194c0 4 3 7 7 7" id="bx"/><path fill="#c92d39" d="M720-720v132H191v162h426v132H191v162h529V0H58v-720h662" id="by"/><path fill="#c92d39" d="M643-192v-528h133V0H632L188-528V0H56v-720h144" id="bz"/><path fill="#c92d39" d="M193-720h442c76 0 139 62 139 139v442C774-62 711 0 635 0H193C116 0 54-62 54-139v-442c0-77 62-139 139-139zm0 588h442c3 0 6-3 6-7v-442c0-4-3-7-6-7H193c-4 0-7 3-7 7v442c0 4 3 7 7 7" id="bA"/><path fill="#c92d39" d="M20-720h720v132H447V0H314v-588H20v-132" id="bB"/><path fill="#c92d39" d="M197-720h441c77 0 140 62 140 139V0H645v-242H190V0H58v-581c0-77 62-139 139-139zm-7 346h455v-207c0-4-3-7-7-7H197c-4 0-7 3-7 7v207" id="bC"/><path fill="#c92d39" d="M51-588v-132h720v144L243-132h528V0H51v-144l528-444H51" id="bD"/><path fill="#c92d39" d="M57 0v-720h132V0H57" id="bE"/><g id="B"><use transform="matrix(0.05955555555555545,0,0,0.05955555555555545,0,0)" xlink:href="#bw"/><use transform="matrix(0.05955555555555545,0,0,0.05955555555555545,47.10844444444436,0)" xlink:href="#bx"/><use transform="matrix(0.05955555555555545,0,0,0.05955555555555545,96.2417777777776,0)" xlink:href="#by"/><use transform="matrix(0.05955555555555545,0,0,0.05955555555555545,141.86133333333308,0)" xlink:href="#bz"/><use transform="matrix(0.05955555555555545,0,0,0.05955555555555545,191.41155555555522,0)" xlink:href="#bA"/><use transform="matrix(0.05955555555555545,0,0,0.05955555555555545,240.72355555555515,0)" xlink:href="#bB"/><use transform="matrix(0.05955555555555545,0,0,0.05955555555555545,285.9262222222217,0)" xlink:href="#bC"/><use transform="matrix(0.05955555555555545,0,0,0.05955555555555545,335.71466666666606,0)" xlink:href="#bD"/><use transform="matrix(0.05955555555555545,0,0,0.05955555555555545,384.6097777777771,0)" xlink:href="#bE"/><use transform="matrix(0.05955555555555545,0,0,0.05955555555555545,397.7119999999993,0)" xlink:href="#bA"/><use transform="matrix(0.05955555555555545,0,0,0.05955555555555545,447.0239999999992,0)" xlink:href="#bz"/><use transform="matrix(0.05955555555555545,0,0,0.05955555555555545,496.57422222222135,0)" xlink:href="#by"/></g><path fill="#c92d39" d="M774-588H195c-4 0-7 3-7 7v442c0 4 3 7 7 7h579V0H195C118 0 56-62 56-139v-442c0-77 62-139 139-139h579v132" id="bF"/><path fill="#c92d39" d="M462-408l261-312h145V0H735v-528L462-203 188-528V0H56v-720h144" id="bG"/><g id="C"><use transform="matrix(0.05955555555555545,0,0,0.05955555555555545,0,0)" xlink:href="#bF"/><use transform="matrix(0.05955555555555545,0,0,0.05955555555555545,48.95466666666658,0)" xlink:href="#bE"/><use transform="matrix(0.05955555555555545,0,0,0.05955555555555545,62.05688888888878,0)" xlink:href="#bz"/><use transform="matrix(0.05955555555555545,0,0,0.05955555555555545,111.60711111111092,0)" xlink:href="#by"/><use transform="matrix(0.05955555555555545,0,0,0.05955555555555545,155.97599999999974,0)" xlink:href="#bG"/><use transform="matrix(0.05955555555555545,0,0,0.05955555555555545,211.2435555555552,0)" xlink:href="#bC"/></g><path fill="#0c7cba" d="M462-408l261-312h145V0H735v-528L462-203 188-528V0H56v-720h144" id="bH"/><path fill="#0c7cba" d="M189-580h313c76 0 138 62 138 138v304C640-62 578 0 502 0H189C113 0 51-62 51-138v-304c0-76 62-138 138-138zm313 131H189c-4 0-7 3-7 7v304c0 4 3 7 7 7h313c4 0 7-3 7-7v-304c0-4-3-7-7-7" id="bI"/><path fill="#0c7cba" d="M482-770h131V0H161C85 0 23-62 23-138v-304c0-76 62-138 138-138h321v-190zM161-131h314c4 0 7-3 7-7v-304c0-4-3-7-7-7H161c-4 0-6 3-6 7v304c0 4 2 7 6 7" id="bJ"/><path fill="#0c7cba" d="M502-580c76 0 138 62 138 138v218H182v86c0 4 3 7 7 7h451V0H189C113 0 51-62 51-138v-304c0-76 62-138 138-138h313zM182-356h327v-86c0-4-3-7-7-7H189c-4 0-7 3-7 7v86" id="bK"/><path fill="#0c7cba" d="M52-770h132v632c0 4 2 7 6 7h117V0H190C114 0 52-62 52-138v-632" id="bL"/><g id="E"><use transform="matrix(0.03955555555555541,0,0,0.03955555555555541,0,0)" xlink:href="#bH"/><use transform="matrix(0.03955555555555541,0,0,0.03955555555555541,36.70755555555542,0)" xlink:href="#bI"/><use transform="matrix(0.03955555555555541,0,0,0.03955555555555541,64.07999999999977,0)" xlink:href="#bJ"/><use transform="matrix(0.03955555555555541,0,0,0.03955555555555541,89.55377777777746,0)" xlink:href="#bK"/><use transform="matrix(0.03955555555555541,0,0,0.03955555555555541,115.93733333333293,0)" xlink:href="#bL"/><use transform="matrix(0.03955555555555541,0,0,0.03955555555555541,129.544444444444,0)" xlink:href="#bL"/><use transform="matrix(0.03955555555555541,0,0,0.03955555555555541,143.15155555555506,0)" xlink:href="#bI"/></g><path fill="#0c7cba" d="M52 0v-580h131V0H52zm0-770h131v132H52v-132" id="bM"/><g id="F"><use transform="matrix(0.03955555555555541,0,0,0.03955555555555541,0,0)" xlink:href="#bJ"/><use transform="matrix(0.03955555555555541,0,0,0.03955555555555541,26.38355555555546,0)" xlink:href="#bM"/></g><path fill="#0c7cba" d="M773-580c76 0 138 62 138 138V0H781v-442c0-4-3-7-8-7H555c-4 0-6 3-6 7V0H417v-442c0-4-3-7-6-7H192c-4 0-7 3-7 7V0H54v-580h719" id="bN"/><path fill="#0c7cba" d="M505-580c76 0 138 62 138 138V0H512v-442c0-4-3-7-7-7H192c-4 0-7 3-7 7V0H54v-580h451" id="bO"/><g id="G"><use transform="matrix(0.03955555555555541,0,0,0.03955555555555541,0,0)" xlink:href="#bJ"/><use transform="matrix(0.03955555555555541,0,0,0.03955555555555541,25.473777777777688,0)" xlink:href="#bI"/><use transform="matrix(0.03955555555555541,0,0,0.03955555555555541,52.84622222222204,0)" xlink:href="#bN"/><use transform="matrix(0.03955555555555541,0,0,0.03955555555555541,91.53155555555523,0)" xlink:href="#bM"/><use transform="matrix(0.03955555555555541,0,0,0.03955555555555541,100.74799999999964,0)" xlink:href="#bO"/><use transform="matrix(0.03955555555555541,0,0,0.03955555555555541,128.2786666666662,0)" xlink:href="#bM"/><use transform="matrix(0.03955555555555541,0,0,0.03955555555555541,137.49511111111062,0)" xlink:href="#bI"/></g><path d="M485-304v207L429 15H35v-189l118 59h169c20-20 11-70 13-109l-13-24-232-80-55-108v-167l56-112h374v189l-118-59H197c-16 19-17 73 0 93l233 80" id="bP"/><path d="M336-585H227l-12 24v425l11 21h121l118-58V15H91L35-96v-507l56-112h363v189" id="bQ"/><path d="M261-395h129l11-22v-144l-12-24H253l8 17v173zm140 151l-10-21H261V15H22l59-117v-495L22-715h503l56 111v177l-32 65-61 32 57 30 36 67v131l59 117H457L401-95v-149" id="bR"/><path d="M510-715v189l-118-59H255l5 9v141h32l118-59v248l-118-59h-32v183l-4 7h136l118-59V15H21l59-118v-494L21-715h489" id="bS"/><path d="M237-247h81l-40-151zm74 262l46-117-4-15H203l-4 17 46 115H-14l74-122 140-487-46-121h224l159 610 73 120H311" id="bT"/><path d="M732-715l-60 118v494l59 118H473l59-118v-246L438 15H314l-92-371v253l59 118H23l59-118v-494L23-715h296l79 323 88-323h246" id="bU"/><path d="M315-715l-60 118v494l59 118H16l59-118v-494L16-715h299" id="bV"/><path d="M621-715l-60 118V15H428L221-343v240l59 118H22l59-118v-494L22-715h193l206 366v-248l-59-118h259" id="bW"/><path d="M535-364l-59 118v143l59 118H92L36-96v-507l56-112h394v189l-118-59H228l-12 24v425l11 21h104l-5-12v-118l-59-119h268" id="bX"/><g id="H"><use transform="matrix(0.02418518518518517,0,0,0.02418518518518517,0,0)" xlink:href="#bP"/><use transform="matrix(0.02418518518518517,0,0,0.02418518518518517,12.527925925925919,0)" xlink:href="#bQ"/><use transform="matrix(0.02418518518518517,0,0,0.02418518518518517,24.64470370370369,0)" xlink:href="#bR"/><use transform="matrix(0.02418518518518517,0,0,0.02418518518518517,40.55855555555553,0)" xlink:href="#bS"/><use transform="matrix(0.02418518518518517,0,0,0.02418518518518517,53.47344444444441,0)" xlink:href="#bT"/><use transform="matrix(0.02418518518518517,0,0,0.02418518518518517,67.88781481481477,0)" xlink:href="#bU"/><use transform="matrix(0.02418518518518517,0,0,0.02418518518518517,86.14762962962958,0)" xlink:href="#bV"/><use transform="matrix(0.02418518518518517,0,0,0.02418518518518517,94.15292592592587,0)" xlink:href="#bW"/><use transform="matrix(0.02418518518518517,0,0,0.02418518518518517,109.63144444444438,0)" xlink:href="#bX"/></g><path d="M652-715l-60 118v494l59 118H363l59-118v-202H252v202l59 118H23l59-118v-494L23-715h289l-60 118v162h170v-162l-59-118h289" id="bY"/><path d="M300-715l-23 114 39 93 38-93-23-114h271l-99 122-110 235v255l59 118H154l59-118v-254L99-591-1-715h301" id="bZ"/><g id="I"><use transform="matrix(0.02418518518518517,0,0,0.02418518518518517,0,0)" xlink:href="#bY"/><use transform="matrix(0.02418518518518517,0,0,0.02418518518518517,16.300814814814807,0)" xlink:href="#bT"/><use transform="matrix(0.02418518518518517,0,0,0.02418518518518517,30.715185185185174,0)" xlink:href="#bV"/><use transform="matrix(0.02418518518518517,0,0,0.02418518518518517,38.720481481481464,0)" xlink:href="#bR"/><use transform="matrix(0.02418518518518517,0,0,0.02418518518518517,53.594370370370335,0)" xlink:href="#bZ"/></g><path d="M254-115h137l10-21v-425l-12-24H253l8 17v439zM22 15l59-117v-495L22-715h503l56 111v508L525 15H22" id="ca"/><path d="M320-715l-60 118v475l-4 7h116l118-59V15H21l59-118v-494L21-715h299" id="cb"/><path d="M216-136l11 21h119l10-21v-425l-12-24H228l-12 24v425zM92 15L36-96v-507l56-112h388l56 111v508L480 15H92" id="cc"/><g id="J"><use transform="matrix(0.02418518518518517,0,0,0.02418518518518517,0,0)" xlink:href="#bT"/><use transform="matrix(0.02418518518518517,0,0,0.02418518518518517,14.414370370370362,0)" xlink:href="#bR"/><use transform="matrix(0.02418518518518517,0,0,0.02418518518518517,30.328222222222205,0)" xlink:href="#bU"/><use transform="matrix(0.02418518518518517,0,0,0.02418518518518517,48.588037037037004,0)" xlink:href="#bT"/><use transform="matrix(0.02418518518518517,0,0,0.02418518518518517,63.00240740740737,0)" xlink:href="#ca"/><use transform="matrix(0.02418518518518517,0,0,0.02418518518518517,77.92466666666662,0)" xlink:href="#bV"/><use transform="matrix(0.02418518518518517,0,0,0.02418518518518517,85.92996296296292,0)" xlink:href="#cb"/><use transform="matrix(0.02418518518518517,0,0,0.02418518518518517,98.09511111111107,0)" xlink:href="#cb"/><use transform="matrix(0.02418518518518517,0,0,0.02418518518518517,110.26025925925921,0)" xlink:href="#cc"/></g><path d="M217-404l36 73 37-73v-137l-69-74h-4v211zm249-216l26-95h168l-43 78v233l42 77H51l41-77v-211h-4l-69 75v-175h422" id="cd"/><use transform="matrix(0.02418518518518517,0,0,0.02418518518518517,0,0)" xlink:href="#cd" id="K"/><path d="M28-815h75v930H28v-930" id="ce"/><use transform="matrix(0.02418518518518517,0,0,0.02418518518518517,0,0)" xlink:href="#ce" id="L"/><path d="M132-115h81l11-21v-462l-59-117h298l-59 116v503L348 15H14v-188" id="cf"/><path d="M230-103h83l5-10v-360l-47-93-46 93v361zm273-472l-51 101v394l-48 95H116L68-80v-393L17-575h486" id="cg"/><path d="M280-575l-52 102v370h79l100-51V15H21L72-87v-386L21-575h259" id="ch"/><path d="M263-575l-20 97 21 49 22-49-18-97h239l-88 108-86 183v197l50 102H125l51-102v-196L87-466-1-575h264" id="ci"/><g id="M"><use transform="matrix(0.02418518518518517,0,0,0.02418518518518517,0,0)" xlink:href="#cf"/><use transform="matrix(0.02418518518518517,0,0,0.02418518518518517,11.004259259259253,0)" xlink:href="#cg"/><use transform="matrix(0.02418518518518517,0,0,0.02418518518518517,23.604740740740727,0)" xlink:href="#ch"/><use transform="matrix(0.02418518518518517,0,0,0.02418518518518517,32.19048148148146,0)" xlink:href="#ci"/></g><path d="M331-565l-10-20H172L54-526v-189h374l56 112v129L261-127l-14 12h119l118-59V15H34v-120" id="cj"/><path d="M207-29l-86 130H37L93 1H54L27-26v-98l32-31h121l27 27v99" id="ck"/><g id="N"><use transform="matrix(0.02418518518518517,0,0,0.02418518518518517,0,0)" xlink:href="#cj"/><use transform="matrix(0.02418518518518517,0,0,0.02418518518518517,12.576296296296288,0)" xlink:href="#ck"/></g><path d="M216-136l11 21h89l10-21v-425l-12-24h-86l-12 24v425zM92 15L36-96v-507l56-112h358l56 111v508L450 15H92" id="cl"/><path d="M278-715v612l59 118H39l59-118v-382H17v-125l80-33 24-72h157" id="cm"/><g id="O"><use transform="matrix(0.02418518518518517,0,0,0.02418518518518517,0,0)" xlink:href="#cj"/><use transform="matrix(0.02418518518518517,0,0,0.02418518518518517,12.21351851851851,0)" xlink:href="#cl"/><use transform="matrix(0.02418518518518517,0,0,0.02418518518518517,25.007481481481467,0)" xlink:href="#cj"/><use transform="matrix(0.02418518518518517,0,0,0.02418518518518517,37.583777777777755,0)" xlink:href="#cm"/></g><path d="M27 0v-27h64v-190l-56 39v-29l58-41h29v221h61V0H27" id="cn"/><use transform="matrix(0.05,0,0,0.05,0,0)" xlink:href="#cn" id="P"/><path d="M101-251c68 0 85 55 85 127S166 4 100 4C33 4 14-52 14-124c0-73 17-127 87-127zm-1 229c47 0 54-49 54-102s-4-102-53-102c-51 0-55 48-55 102 0 53 5 102 54 102" id="co"/><path d="M33 0v-38h34V0H33" id="cp"/><path d="M80-196l47-18 7 23-49 13 32 44-20 13-27-46-27 45-21-12 33-44-49-13 8-23 47 19-2-53h23" id="cq"/><g id="Q"><use transform="matrix(0.05,0,0,0.05,0,0)" xlink:href="#co"/><use transform="matrix(0.05,0,0,0.05,10,0)" xlink:href="#cp"/><use transform="matrix(0.05,0,0,0.05,15,0)" xlink:href="#cp"/><use transform="matrix(0.05,0,0,0.05,20,0)" xlink:href="#cq"/></g><path fill="#333" d="M637-901c-26 37-60 77-98 101-49-23-102-36-189-35v733c20 27 66 28 110 40 26 7 60 12 99 19V0H60v-43c46-8 80-17 104-29s36-22 36-30v-733H66l-21-28 78-67h77c-4-206 28-357 123-458 76-80 165-162 306-162 70 0 128 40 170 71 45 34-12 63-31 82-20 20-53 42-78 54-47-38-97-74-170-82-101 14-128 103-153 206-17 68-18 189-17 289h258" id="cr"/><path fill="#333" d="M61-479c7-29 20-66 31-91h512l25 24c-7 27-20 69-31 91H86" id="cs"/><g id="R"><use transform="matrix(0.010959201388888886,0,0,0.010959201388888886,0,0)" xlink:href="#aM"/><use transform="matrix(0.010959201388888886,0,0,0.010959201388888886,8.887912326388888,0)" xlink:href="#aP"/><use transform="matrix(0.010959201388888886,0,0,0.010959201388888886,19.25531684027777,0)" xlink:href="#cr"/><use transform="matrix(0.010959201388888886,0,0,0.010959201388888886,26.236328124999993,0)" xlink:href="#aP"/><use transform="matrix(0.010959201388888886,0,0,0.010959201388888886,36.60373263888888,0)" xlink:href="#aM"/><use transform="matrix(0.010959201388888886,0,0,0.010959201388888886,45.491644965277764,0)" xlink:href="#aQ"/><use transform="matrix(0.010959201388888886,0,0,0.010959201388888886,54.160373263888864,0)" xlink:href="#cs"/><use transform="matrix(0.010959201388888886,0,0,0.010959201388888886,61.7222222222222,0)" xlink:href="#aU"/><use transform="matrix(0.010959201388888886,0,0,0.010959201388888886,69.44845920138887,0)" xlink:href="#aN"/></g><g id="S"><use transform="matrix(0.05,0,0,0.05,0,0)" xlink:href="#cn"/><use transform="matrix(0.05,0,0,0.05,10,0)" xlink:href="#cp"/><use transform="matrix(0.05,0,0,0.05,15,0)" xlink:href="#cp"/><use transform="matrix(0.05,0,0,0.05,20,0)" xlink:href="#cq"/></g><path fill="#333" d="M253-1550c12 13 24 23 37 34v789c79-93 162-176 279-219 126-47 236 30 293 110 92 129 120 422 29 582C806-106 691 30 469 30 340 30 241-44 140-96v-1200c0-72-5-116-64-125-17-3-39-6-66-9v-40c91-23 169-38 243-80zm37 1347c74 54 163 101 277 103 332 7 292-579 93-697-116-69-221 19-286 83-28 28-56 63-84 104v407" id="ct"/><g id="T"><use transform="matrix(0.010959201388888886,0,0,0.010959201388888886,0,0)" xlink:href="#bk"/><use transform="matrix(0.010959201388888886,0,0,0.010959201388888886,9.808485243055554,0)" xlink:href="#aN"/><use transform="matrix(0.010959201388888886,0,0,0.010959201388888886,21.096462673611107,0)" xlink:href="#aZ"/><use transform="matrix(0.010959201388888886,0,0,0.010959201388888886,39.12434895833333,0)" xlink:href="#aW"/><use transform="matrix(0.010959201388888886,0,0,0.010959201388888886,51.01508246527778,0)" xlink:href="#aN"/><use transform="matrix(0.010959201388888886,0,0,0.010959201388888886,62.30305989583333,0)" xlink:href="#aQ"/><use transform="matrix(0.010959201388888886,0,0,0.010959201388888886,70.97178819444444,0)" xlink:href="#aP"/><use transform="matrix(0.010959201388888886,0,0,0.010959201388888886,81.33919270833333,0)" xlink:href="#aJ"/><use transform="matrix(0.010959201388888886,0,0,0.010959201388888886,93.0107421875,0)" xlink:href="#cs"/><use transform="matrix(0.010959201388888886,0,0,0.010959201388888886,100.57259114583333,0)" xlink:href="#ct"/><use transform="matrix(0.010959201388888886,0,0,0.010959201388888886,111.97016059027777,0)" xlink:href="#aV"/></g><use transform="matrix(0.05,0,0,0.05,0,0)" xlink:href="#cn" id="U"/><path fill="#333" d="M1425-887c-48 13-87 16-100 62L1104-59c-18 55-80 74-137 89L729-648 524-59c-19 53-75 76-133 89L129-825c-6-26-42-47-109-62v-43h386v43c-51 6-86 10-115 27-14 9-15 18-10 35l188 635 246-740h69l260 740 173-635c4-15-3-28-21-37s-50-18-96-25v-43h325v43" id="cu"/><path fill="#333" d="M650-941c160-61 310 30 310 200v637c0 9 10 19 30 28s57 20 110 33V0H670v-43c48-13 83-24 106-33s34-19 34-28v-529c0-115-15-205-128-197-117 8-182 84-249 158-31 34-59 76-88 123v445c0 10 12 20 37 31s60 21 103 30V0H55v-43c44-11 78-22 103-31s37-19 37-30v-1194c1-71-4-110-64-120-19-4-44-8-76-12v-40c97-18 178-41 253-80l37 34v832c76-110 177-208 305-257" id="cv"/><g id="V"><use transform="matrix(0.010959201388888886,0,0,0.010959201388888886,0,0)" xlink:href="#aW"/><use transform="matrix(0.010959201388888886,0,0,0.010959201388888886,11.890733506944441,0)" xlink:href="#ba"/><use transform="matrix(0.010959201388888886,0,0,0.010959201388888886,22.192382812499993,0)" xlink:href="#aI"/><use transform="matrix(0.010959201388888886,0,0,0.010959201388888886,28.27473958333333,0)" xlink:href="#aJ"/><use transform="matrix(0.010959201388888886,0,0,0.010959201388888886,39.946289062499986,0)" xlink:href="#cs"/><use transform="matrix(0.010959201388888886,0,0,0.010959201388888886,47.508138020833314,0)" xlink:href="#cu"/><use transform="matrix(0.010959201388888886,0,0,0.010959201388888886,63.35514322916664,0)" xlink:href="#aI"/><use transform="matrix(0.010959201388888886,0,0,0.010959201388888886,69.43749999999997,0)" xlink:href="#aU"/><use transform="matrix(0.010959201388888886,0,0,0.010959201388888886,77.16373697916664,0)" xlink:href="#cv"/></g><g id="W"><use transform="matrix(0.010959201388888886,0,0,0.010959201388888886,0,0)" xlink:href="#ct"/><use transform="matrix(0.010959201388888886,0,0,0.010959201388888886,11.397569444444441,0)" xlink:href="#bd"/><use transform="matrix(0.010959201388888886,0,0,0.010959201388888886,23.288302951388882,0)" xlink:href="#aV"/><use transform="matrix(0.010959201388888886,0,0,0.010959201388888886,34.35709635416666,0)" xlink:href="#cs"/><use transform="matrix(0.010959201388888886,0,0,0.010959201388888886,41.918945312499986,0)" xlink:href="#ba"/></g><path d="M137-138c1-29-70-34-71-4 15 46 118 7 119 86 1 83-164 76-172 9l43-7c4 19 20 25 44 25 33 8 57-30 24-41C81-84 22-81 20-136c-2-80 154-74 161-7" id="cw"/><path d="M128 0H69L1-190h53L99-40l48-150h52" id="cx"/><g id="X"><use transform="matrix(0.06234567901234567,0,0,0.06234567901234567,0,0)" xlink:href="#aG"/><use transform="matrix(0.06234567901234567,0,0,0.06234567901234567,16.147530864197527,0)" xlink:href="#ap"/><use transform="matrix(0.06234567901234567,0,0,0.06234567901234567,28.61666666666666,0)" xlink:href="#cw"/><use transform="matrix(0.06234567901234567,0,0,0.06234567901234567,41.08580246913579,0)" xlink:href="#ap"/><use transform="matrix(0.06234567901234567,0,0,0.06234567901234567,53.554938271604925,0)" xlink:href="#bg"/><use transform="matrix(0.06234567901234567,0,0,0.06234567901234567,62.28333333333332,0)" xlink:href="#cx"/><use transform="matrix(0.06234567901234567,0,0,0.06234567901234567,74.75246913580244,0)" xlink:href="#ar"/><use transform="matrix(0.06234567901234567,0,0,0.06234567901234567,87.22160493827158,0)" xlink:href="#aT"/><use transform="matrix(0.06234567901234567,0,0,0.06234567901234567,94.64074074074071,0)" xlink:href="#an"/><use transform="matrix(0.06234567901234567,0,0,0.06234567901234567,100.87530864197528,0)" xlink:href="#aH"/><use transform="matrix(0.06234567901234567,0,0,0.06234567901234567,114.52901234567898,0)" xlink:href="#ao"/></g><g id="Y"><use transform="matrix(0.010959201388888886,0,0,0.010959201388888886,0,0)" xlink:href="#aL"/><use transform="matrix(0.010959201388888886,0,0,0.010959201388888886,11.737304687499996,0)" xlink:href="#aM"/><use transform="matrix(0.010959201388888886,0,0,0.010959201388888886,20.625217013888886,0)" xlink:href="#aN"/><use transform="matrix(0.010959201388888886,0,0,0.010959201388888886,31.913194444444436,0)" xlink:href="#aO"/><use transform="matrix(0.010959201388888886,0,0,0.010959201388888886,42.861436631944436,0)" xlink:href="#aM"/><use transform="matrix(0.010959201388888886,0,0,0.010959201388888886,51.74934895833332,0)" xlink:href="#aP"/><use transform="matrix(0.010959201388888886,0,0,0.010959201388888886,62.11675347222221,0)" xlink:href="#aQ"/><use transform="matrix(0.010959201388888886,0,0,0.010959201388888886,70.78548177083331,0)" xlink:href="#aQ"/><use transform="matrix(0.010959201388888886,0,0,0.010959201388888886,79.45421006944443,0)" xlink:href="#aI"/><use transform="matrix(0.010959201388888886,0,0,0.010959201388888886,85.53656684027776,0)" xlink:href="#aR"/><use transform="matrix(0.010959201388888886,0,0,0.010959201388888886,96.60536024305553,0)" xlink:href="#aP"/></g><g id="Z"><use transform="matrix(0.010959201388888886,0,0,0.010959201388888886,0,0)" xlink:href="#aW"/><use transform="matrix(0.010959201388888886,0,0,0.010959201388888886,11.890733506944441,0)" xlink:href="#bd"/><use transform="matrix(0.010959201388888886,0,0,0.010959201388888886,23.781467013888882,0)" xlink:href="#aM"/><use transform="matrix(0.010959201388888886,0,0,0.010959201388888886,32.66937934027777,0)" xlink:href="#bk"/><use transform="matrix(0.010959201388888886,0,0,0.010959201388888886,42.47786458333333,0)" xlink:href="#cv"/><use transform="matrix(0.010959201388888886,0,0,0.010959201388888886,54.86176215277778,0)" xlink:href="#ba"/><use transform="matrix(0.010959201388888886,0,0,0.010959201388888886,65.16341145833333,0)" xlink:href="#aQ"/><use transform="matrix(0.010959201388888886,0,0,0.010959201388888886,73.83213975694444,0)" xlink:href="#aP"/><use transform="matrix(0.010959201388888886,0,0,0.010959201388888886,84.19954427083333,0)" xlink:href="#bv"/><use transform="matrix(0.010959201388888886,0,0,0.010959201388888886,97.50401475694444,0)" xlink:href="#ba"/><use transform="matrix(0.010959201388888886,0,0,0.010959201388888886,107.8056640625,0)" xlink:href="#aU"/><use transform="matrix(0.010959201388888886,0,0,0.010959201388888886,115.53190104166669,0)" xlink:href="#aP"/></g><path fill="#333" d="M211 284c-34 22-84 36-125 51l-37-25 701-1861c33-21 81-37 122-49l37 22" id="cy"/><g id="aa"><use transform="matrix(0.010959201388888886,0,0,0.010959201388888886,0,0)" xlink:href="#cy"/><use transform="matrix(0.010959201388888886,0,0,0.010959201388888886,10.53179253472222,0)" xlink:href="#aU"/><use transform="matrix(0.010959201388888886,0,0,0.010959201388888886,18.258029513888886,0)" xlink:href="#aN"/><use transform="matrix(0.010959201388888886,0,0,0.010959201388888886,29.54600694444444,0)" xlink:href="#aU"/><use transform="matrix(0.010959201388888886,0,0,0.010959201388888886,37.27224392361111,0)" xlink:href="#ba"/><use transform="matrix(0.010959201388888886,0,0,0.010959201388888886,47.57389322916666,0)" xlink:href="#bb"/><use transform="matrix(0.010959201388888886,0,0,0.010959201388888886,53.656249999999986,0)" xlink:href="#br"/><use transform="matrix(0.010959201388888886,0,0,0.010959201388888886,67.01551649305554,0)" xlink:href="#aZ"/><use transform="matrix(0.010959201388888886,0,0,0.010959201388888886,85.04340277777776,0)" xlink:href="#aN"/><use transform="matrix(0.010959201388888886,0,0,0.010959201388888886,96.33138020833331,0)" xlink:href="#bd"/><use transform="matrix(0.010959201388888886,0,0,0.010959201388888886,108.22211371527776,0)" xlink:href="#bm"/><use transform="matrix(0.010959201388888886,0,0,0.010959201388888886,120.6060112847222,0)" xlink:href="#aU"/></g><g id="ab"><use transform="matrix(0.010959201388888886,0,0,0.010959201388888886,0,0)" xlink:href="#bk"/><use transform="matrix(0.010959201388888886,0,0,0.010959201388888886,9.808485243055554,0)" xlink:href="#aN"/><use transform="matrix(0.010959201388888886,0,0,0.010959201388888886,21.096462673611107,0)" xlink:href="#bm"/><use transform="matrix(0.010959201388888886,0,0,0.010959201388888886,33.48036024305555,0)" xlink:href="#aU"/><use transform="matrix(0.010959201388888886,0,0,0.010959201388888886,41.206597222222214,0)" xlink:href="#ba"/><use transform="matrix(0.010959201388888886,0,0,0.010959201388888886,51.50824652777778,0)" xlink:href="#aI"/><use transform="matrix(0.010959201388888886,0,0,0.010959201388888886,57.5906032986111,0)" xlink:href="#bm"/><use transform="matrix(0.010959201388888886,0,0,0.010959201388888886,69.97450086805554,0)" xlink:href="#aQ"/></g><path d="M230 0l2-204L168 0h-37L68-204 70 0H24v-248h70l56 185 57-185h69V0h-46" id="cz"/><g id="ac"><use transform="matrix(0.06234567901234567,0,0,0.06234567901234567,0,0)" xlink:href="#cz"/><use transform="matrix(0.06234567901234567,0,0,0.06234567901234567,18.641358024691353,0)" xlink:href="#aH"/><use transform="matrix(0.06234567901234567,0,0,0.06234567901234567,32.295061728395055,0)" xlink:href="#cx"/><use transform="matrix(0.06234567901234567,0,0,0.06234567901234567,44.76419753086419,0)" xlink:href="#an"/><use transform="matrix(0.06234567901234567,0,0,0.06234567901234567,50.99876543209875,0)" xlink:href="#ap"/></g><g id="ad"><use transform="matrix(0.010959201388888886,0,0,0.010959201388888886,0,0)" xlink:href="#aU"/><use transform="matrix(0.010959201388888886,0,0,0.010959201388888886,7.726236979166665,0)" xlink:href="#aI"/><use transform="matrix(0.010959201388888886,0,0,0.010959201388888886,13.808593749999996,0)" xlink:href="#aU"/><use transform="matrix(0.010959201388888886,0,0,0.010959201388888886,21.53483072916666,0)" xlink:href="#bb"/><use transform="matrix(0.010959201388888886,0,0,0.010959201388888886,27.617187499999993,0)" xlink:href="#aP"/></g><g id="ae"><use transform="matrix(0.010959201388888886,0,0,0.010959201388888886,0,0)" xlink:href="#aJ"/><use transform="matrix(0.010959201388888886,0,0,0.010959201388888886,11.671549479166664,0)" xlink:href="#aP"/><use transform="matrix(0.010959201388888886,0,0,0.010959201388888886,22.03895399305555,0)" xlink:href="#aQ"/><use transform="matrix(0.010959201388888886,0,0,0.010959201388888886,30.70768229166666,0)" xlink:href="#bk"/><use transform="matrix(0.010959201388888886,0,0,0.010959201388888886,40.516167534722214,0)" xlink:href="#aM"/><use transform="matrix(0.010959201388888886,0,0,0.010959201388888886,49.4040798611111,0)" xlink:href="#aI"/><use transform="matrix(0.010959201388888886,0,0,0.010959201388888886,55.48643663194443,0)" xlink:href="#aW"/><use transform="matrix(0.010959201388888886,0,0,0.010959201388888886,67.37717013888887,0)" xlink:href="#aU"/><use transform="matrix(0.010959201388888886,0,0,0.010959201388888886,75.10340711805554,0)" xlink:href="#aI"/><use transform="matrix(0.010959201388888886,0,0,0.010959201388888886,81.18576388888887,0)" xlink:href="#aN"/><use transform="matrix(0.010959201388888886,0,0,0.010959201388888886,92.47374131944443,0)" xlink:href="#bm"/></g><g id="af"><use transform="matrix(0.010959201388888886,0,0,0.010959201388888886,0,0)" xlink:href="#aO"/><use transform="matrix(0.010959201388888886,0,0,0.010959201388888886,10.948242187499998,0)" xlink:href="#aP"/><use transform="matrix(0.010959201388888886,0,0,0.010959201388888886,21.315646701388886,0)" xlink:href="#bm"/><use transform="matrix(0.010959201388888886,0,0,0.010959201388888886,33.69954427083333,0)" xlink:href="#aM"/><use transform="matrix(0.010959201388888886,0,0,0.010959201388888886,42.587456597222214,0)" xlink:href="#aP"/><use transform="matrix(0.010959201388888886,0,0,0.010959201388888886,52.9548611111111,0)" xlink:href="#aQ"/></g><g id="ag"><use transform="matrix(0.010959201388888886,0,0,0.010959201388888886,0,0)" xlink:href="#aJ"/><use transform="matrix(0.010959201388888886,0,0,0.010959201388888886,11.671549479166664,0)" xlink:href="#aI"/><use transform="matrix(0.010959201388888886,0,0,0.010959201388888886,17.753906249999996,0)" xlink:href="#aM"/><use transform="matrix(0.010959201388888886,0,0,0.010959201388888886,26.64181857638889,0)" xlink:href="#aP"/><use transform="matrix(0.010959201388888886,0,0,0.010959201388888886,37.00922309027777,0)" xlink:href="#bk"/><use transform="matrix(0.010959201388888886,0,0,0.010959201388888886,46.817708333333336,0)" xlink:href="#aU"/><use transform="matrix(0.010959201388888886,0,0,0.010959201388888886,54.5439453125,0)" xlink:href="#aN"/><use transform="matrix(0.010959201388888886,0,0,0.010959201388888886,65.83192274305554,0)" xlink:href="#aM"/><use transform="matrix(0.010959201388888886,0,0,0.010959201388888886,74.71983506944443,0)" xlink:href="#aQ"/></g><g id="ah"><use transform="matrix(0.010959201388888886,0,0,0.010959201388888886,0,0)" xlink:href="#bk"/><use transform="matrix(0.010959201388888886,0,0,0.010959201388888886,9.808485243055554,0)" xlink:href="#ba"/><use transform="matrix(0.010959201388888886,0,0,0.010959201388888886,20.110134548611107,0)" xlink:href="#aQ"/><use transform="matrix(0.010959201388888886,0,0,0.010959201388888886,28.778862847222214,0)" xlink:href="#aU"/></g><g id="ai"><use transform="matrix(0.010959201388888886,0,0,0.010959201388888886,0,0)" xlink:href="#aM"/><use transform="matrix(0.010959201388888886,0,0,0.010959201388888886,8.887912326388888,0)" xlink:href="#ba"/><use transform="matrix(0.010959201388888886,0,0,0.010959201388888886,19.189561631944443,0)" xlink:href="#aU"/><use transform="matrix(0.010959201388888886,0,0,0.010959201388888886,26.915798611111104,0)" xlink:href="#aI"/><use transform="matrix(0.010959201388888886,0,0,0.010959201388888886,32.99815538194444,0)" xlink:href="#bm"/><use transform="matrix(0.010959201388888886,0,0,0.010959201388888886,45.382052951388886,0)" xlink:href="#aO"/></g><g id="aj"><use transform="matrix(0.010959201388888886,0,0,0.010959201388888886,0,0)" xlink:href="#aJ"/><use transform="matrix(0.010959201388888886,0,0,0.010959201388888886,11.671549479166664,0)" xlink:href="#bd"/><use transform="matrix(0.010959201388888886,0,0,0.010959201388888886,23.562282986111107,0)" xlink:href="#aM"/><use transform="matrix(0.010959201388888886,0,0,0.010959201388888886,32.45019531249999,0)" xlink:href="#ba"/><use transform="matrix(0.010959201388888886,0,0,0.010959201388888886,42.75184461805554,0)" xlink:href="#aU"/><use transform="matrix(0.010959201388888886,0,0,0.010959201388888886,50.47808159722221,0)" xlink:href="#aI"/><use transform="matrix(0.010959201388888886,0,0,0.010959201388888886,56.56043836805554,0)" xlink:href="#aN"/><use transform="matrix(0.010959201388888886,0,0,0.010959201388888886,67.8484157986111,0)" xlink:href="#bm"/></g><g id="ak"><use transform="matrix(0.010959201388888886,0,0,0.010959201388888886,0,0)" xlink:href="#aW"/><use transform="matrix(0.010959201388888886,0,0,0.010959201388888886,11.890733506944441,0)" xlink:href="#bb"/><use transform="matrix(0.010959201388888886,0,0,0.010959201388888886,17.97309027777777,0)" xlink:href="#ba"/><use transform="matrix(0.010959201388888886,0,0,0.010959201388888886,28.27473958333333,0)" xlink:href="#bk"/><use transform="matrix(0.010959201388888886,0,0,0.010959201388888886,38.08322482638888,0)" xlink:href="#aP"/><use transform="matrix(0.010959201388888886,0,0,0.010959201388888886,48.450629340277764,0)" xlink:href="#aJ"/><use transform="matrix(0.010959201388888886,0,0,0.010959201388888886,60.12217881944443,0)" xlink:href="#cs"/><use transform="matrix(0.010959201388888886,0,0,0.010959201388888886,67.68402777777776,0)" xlink:href="#aI"/><use transform="matrix(0.010959201388888886,0,0,0.010959201388888886,73.76638454861109,0)" xlink:href="#bm"/></g><g id="al"><use transform="matrix(0.010959201388888886,0,0,0.010959201388888886,0,0)" xlink:href="#aQ"/><use transform="matrix(0.010959201388888886,0,0,0.010959201388888886,8.668728298611109,0)" xlink:href="#bk"/><use transform="matrix(0.010959201388888886,0,0,0.010959201388888886,18.477213541666664,0)" xlink:href="#cv"/><use transform="matrix(0.010959201388888886,0,0,0.010959201388888886,30.86111111111111,0)" xlink:href="#aP"/><use transform="matrix(0.010959201388888886,0,0,0.010959201388888886,41.22851562499999,0)" xlink:href="#aJ"/><use transform="matrix(0.010959201388888886,0,0,0.010959201388888886,52.90006510416666,0)" xlink:href="#bd"/><use transform="matrix(0.010959201388888886,0,0,0.010959201388888886,64.7907986111111,0)" xlink:href="#bb"/><use transform="matrix(0.010959201388888886,0,0,0.010959201388888886,70.87315538194443,0)" xlink:href="#aP"/><use transform="matrix(0.010959201388888886,0,0,0.010959201388888886,81.24055989583331,0)" xlink:href="#aQ"/></g></defs></g></svg>