<?xml version="1.0" encoding="UTF-8" standalone="no"?>
<!-- Created with Inkscape (http://www.inkscape.org/) -->

<svg
   version="1.1"
   id="svg21"
   width="512"
   height="512"
   viewBox="0 0 512 512"
   xmlns="http://www.w3.org/2000/svg"
   xmlns:svg="http://www.w3.org/2000/svg">
  <defs
     id="defs25" />
  <g
     id="g27">
    <path
       style="fill:#198754;fill-opacity:1;stroke-width:1.30118"
       d="m 27.446022,469.88757 c -1.652887,-0.55837 -4.374415,-2.47054 -6.047836,-4.24929 l -3.042584,-3.23405 v -23.09942 -23.09945 l 2.027809,-3.27863 2.027811,-3.27865 3.731228,-1.4214 3.731228,-1.42143 H 256.46184 483.05 l 3.31298,1.94018 3.313,1.94018 1.9842,3.97052 1.98422,3.97055 v 20.30277 20.30278 l -2.02242,4.047 -2.02244,4.04701 -4.31049,1.86371 -4.3105,1.86369 -225.26364,-0.0755 -225.263637,-0.0753 z m -1.809006,-90.00796 -3.312992,-1.94021 -1.98421,-3.97052 -1.984212,-3.97052 v -67.29929 -67.29929 l 2.022428,-4.047 2.022429,-4.04701 4.310494,-1.86369 4.310498,-1.86372 h 17.217578 17.217578 l 4.174298,1.80483 4.174325,1.8048 2.191681,3.5436 2.19167,3.54357 -0.388822,70.3011 -0.388822,70.30104 -4.647262,3.47124 -4.647261,3.47123 H 48.533208 28.950005 Z m 86.946424,0.0833 c -1.74392,-1.02132 -4.12767,-3.40403 -5.29719,-5.29495 l -2.12641,-3.43808 0.003,-9.87482 0.002,-9.8748 2.48807,-4.14769 2.48807,-4.14769 3.55755,-1.49565 3.55755,-1.49567 140.64671,0.28935 140.64671,0.28929 3.43411,3.33825 3.4341,3.33826 v 12.37041 12.37041 l -1.70008,3.11969 -1.70005,3.11967 -3.92134,1.69545 -3.92136,1.69544 H 254.96554 115.75552 l -3.17081,-1.8569 z m 326.65288,-1.61435 -4.64726,-3.47125 -0.38884,-70.30104 -0.38881,-70.30107 2.19168,-3.54358 2.19167,-3.5436 4.17433,-1.80481 4.17429,-1.80483 h 17.21758 17.21758 l 4.3105,1.86371 4.3105,1.8637 2.02242,4.04701 2.02243,4.04699 v 67.2993 67.29927 l -1.98421,3.97054 -1.98421,3.97053 -3.31299,1.94018 -3.31299,1.94017 h -19.58321 -19.58321 l -4.64725,-3.47123 z m -326.4197,-64.23896 -4.43892,-2.2631 -1.60892,-3.85891 -1.60894,-3.85893 V 195.3783 86.627949 l 2.2631,-8.319239 2.26309,-8.319238 5.91928,-7.362327 5.91926,-7.362323 7.1151,-4.490682 c 3.91332,-2.469874 10.63709,-5.691524 14.94172,-7.159222 l 7.82662,-2.668554 h 104.59198 104.59199 l 7.82662,2.668541 c 4.30463,1.467699 11.01781,4.69588 14.91814,7.173737 l 7.09153,4.505193 5.38955,6.450041 5.38955,6.450035 2.1467,6.007678 2.14667,6.007678 -0.0525,113.624473 -0.0524,113.62447 -2.61675,2.97446 c -1.43922,1.63596 -4.15593,3.63582 -6.03713,4.44415 l -3.42037,1.4697 -138.03298,0.013 -138.03297,0.013 -4.43889,-2.2631 z"
       id="path265" />
  </g>
</svg>
